<svg width="25" height="25" viewBox="0 0 25 25" fill="none" xmlns="http://www.w3.org/2000/svg">
<path d="M11.0366 0.772022H9.95367C9.86305 0.772022 9.77609 0.808009 9.71198 0.87212L3.02814 7.55601C2.96403 7.62012 2.92804 7.70703 2.92804 7.79771C2.92804 7.88838 2.96403 7.97529 3.02814 8.0394L4.11105 9.12231C4.24449 9.25576 4.46095 9.25576 4.5944 9.12231L9.16334 4.55337V23.8863C9.16334 24.0751 9.31637 24.2281 9.50514 24.2281H11.0366C11.2254 24.2281 11.3784 24.0751 11.3784 23.8863V1.11382C11.3784 0.925001 11.2254 0.772022 11.0366 0.772022Z" fill="#3B3B3B"/>
<path d="M21.9719 16.9606L20.889 15.8777C20.7555 15.7443 20.5391 15.7443 20.4056 15.8777L15.8366 20.4467V1.11382C15.8366 0.92505 15.6836 0.772022 15.4948 0.772022H13.9634C13.7747 0.772022 13.6216 0.92505 13.6216 1.11382V23.8862C13.6216 24.075 13.7747 24.228 13.9634 24.228H15.0463C15.137 24.228 15.2239 24.192 15.288 24.1279L21.9719 17.4441C22.036 17.38 22.0721 17.293 22.0721 17.2024C22.0721 17.1118 22.036 17.0248 21.9719 16.9606Z" fill="#3B3B3B"/>
</svg>
