<svg width="25" height="25" viewBox="0 0 25 25" fill="none" xmlns="http://www.w3.org/2000/svg">
<path d="M24.3964 7.13657H22.2586L15.166 0.169769C14.9396 -0.0565895 14.5624 -0.0565895 14.336 0.169769C14.1097 0.396127 14.1097 0.77339 14.336 0.999748L20.5734 7.11142H4.42656L10.664 0.999748C10.8903 0.77339 10.8903 0.396127 10.664 0.169769C10.4376 -0.0565895 10.0604 -0.0565895 9.83401 0.169769L2.74145 7.13657H0.603622C0.27666 7.13657 0 7.41323 0 7.74019V11.3116C0 11.6386 0.27666 11.9152 0.603622 11.9152H1.2827L2.99296 24.4907C3.04326 24.7925 3.29477 24.9937 3.57143 24.9937H21.4286C21.7304 24.9937 21.9819 24.7674 22.007 24.4907L23.7173 11.9152H24.3964C24.7233 11.9152 25 11.6386 25 11.3116V7.74019C25 7.41323 24.7233 7.13657 24.3964 7.13657ZM20.9004 23.8116H4.0996L2.46479 11.9152H22.5352L20.9004 23.8116ZM23.8179 10.708H23.2143H1.78571H1.18209V8.31866H23.8179V10.708Z" fill="#3B3B3B"/>
<path d="M12.5 20.8187C12.827 20.8187 13.1036 20.542 13.1036 20.215V15.4615C13.1036 15.1346 12.827 14.8579 12.5 14.8579C12.173 14.8579 11.8964 15.1346 11.8964 15.4615V20.215C11.8964 20.5672 12.173 20.8187 12.5 20.8187Z" fill="#3B3B3B"/>
<path d="M7.14288 20.3156C7.16803 20.6175 7.44469 20.8438 7.72135 20.8438H7.7968C8.12377 20.7935 8.35013 20.5169 8.32497 20.1899L7.72135 15.4364C7.67105 15.1094 7.36924 14.8831 7.06743 14.9082C6.74047 14.9585 6.51411 15.2352 6.53926 15.5621L7.14288 20.3156Z" fill="#3B3B3B"/>
<path d="M17.1781 20.8187H17.2535C17.5553 20.8187 17.8069 20.5923 17.832 20.2905L18.4356 15.537C18.4859 15.21 18.2344 14.9082 17.9075 14.8831C17.5805 14.8327 17.2787 15.0843 17.2535 15.4112L16.6499 20.1647C16.6248 20.4917 16.8511 20.7684 17.1781 20.8187Z" fill="#3B3B3B"/>
</svg>
