<svg width="69" height="13" viewBox="0 0 69 13" fill="none" xmlns="http://www.w3.org/2000/svg">
<g clip-path="url(#clip0_40_1338)">
<path fill-rule="evenodd" clip-rule="evenodd" d="M20.75 9.25014C20.1517 9.25147 19.5666 9.07386 19.07 8.74014C18.5704 8.40896 18.1814 7.93569 17.9532 7.38136C17.7251 6.82704 17.6682 6.21708 17.79 5.63014C17.9114 5.04345 18.1956 4.50282 18.61 4.07014C19.0294 3.64682 19.5653 3.35798 20.1495 3.24043C20.7336 3.12289 21.3396 3.18197 21.89 3.41014C22.4397 3.64331 22.9114 4.02836 23.25 4.52014C23.643 5.09776 23.8221 5.79444 23.7564 6.48999C23.6907 7.18555 23.3843 7.83635 22.89 8.33014C22.6163 8.62309 22.2848 8.85609 21.9164 9.01444C21.5481 9.17279 21.1509 9.25305 20.75 9.25014ZM20.75 0.00013582C19.7015 -0.00683736 18.6687 0.254807 17.75 0.760136C16.837 1.26571 16.0612 1.98659 15.49 2.86014C14.9192 3.74263 14.5757 4.75265 14.49 5.80014C14.415 6.83169 14.6079 7.86512 15.05 8.80014C15.5012 9.75482 16.1898 10.5777 17.05 11.1901C17.877 11.8271 18.8559 12.2373 19.89 12.3801C20.9388 12.5223 22.0066 12.3914 22.99 12.0001C23.969 11.6238 24.8338 11.0002 25.5 10.1901C25.1055 10.9347 24.5184 11.5597 23.8 12.0001V12.3301H26.96V6.19014C26.9547 4.54661 26.2981 2.9722 25.1341 1.81193C23.9701 0.651647 22.3936 0.000127296 20.75 0.00013582ZM50.61 9.31014H46.52V7.31014H50.52C50.7916 7.31796 51.0512 7.42335 51.2514 7.607C51.4516 7.79065 51.5789 8.04027 51.61 8.31014C51.61 8.57535 51.5047 8.82971 51.3171 9.01724C51.1296 9.20478 50.8752 9.31014 50.61 9.31014ZM46.5 3.15014H49.95C50.2091 3.16871 50.4528 3.28003 50.6365 3.4637C50.8201 3.64736 50.9314 3.89106 50.95 4.15014C50.9506 4.28939 50.9221 4.42722 50.8663 4.55481C50.8105 4.6824 50.7287 4.79693 50.6261 4.89107C50.5234 4.98521 50.4023 5.05688 50.2704 5.10149C50.1385 5.1461 49.9987 5.16267 49.86 5.15014H46.52L46.5 3.15014ZM53.42 5.86014C53.7898 5.28905 53.9973 4.62813 54.0202 3.94816C54.0431 3.26819 53.8805 2.59481 53.55 2.00014C53.2179 1.42107 52.7338 0.943859 52.15 0.620136C51.5719 0.295035 50.923 0.116498 50.26 0.100136H43.37V12.3601H51.08C51.5727 12.3721 52.0629 12.286 52.522 12.1069C52.9811 11.9278 53.4001 11.6593 53.7546 11.3169C54.1091 10.9745 54.392 10.5651 54.5869 10.1125C54.7818 9.65981 54.8849 9.17294 54.89 8.68014C54.8932 8.13128 54.7662 7.5895 54.5193 7.09928C54.2725 6.60906 53.9129 6.18438 53.47 5.86014M40.26 4.61014C41.1003 7.10365 41.4699 9.73159 41.35 12.3601H38.15C38.2037 10.5607 38.0425 8.76136 37.67 7.00014C37.12 4.84014 36.09 3.26014 35.13 3.26014C34.17 3.26014 33.13 4.84014 32.6 7.00014C32.2239 8.76421 32.0627 10.5673 32.12 12.3701H28.89C28.7851 9.74231 29.1543 7.11707 29.98 4.62014C30.99 2.00014 32.78 0.00013582 35.13 0.00013582C37.48 0.00013582 39.28 2.00014 40.26 4.61014ZM10.1 0.100136H13.29V1.38014C13.2887 2.30984 13.0839 3.228 12.69 4.07014C12.296 4.91066 11.7144 5.6496 10.99 6.23014C11.7144 6.81067 12.296 7.54961 12.69 8.39014C13.0839 9.23227 13.2887 10.1504 13.29 11.0801V12.3601H10.1V10.7501C10.1 9.95449 9.78394 9.19142 9.22134 8.62881C8.65873 8.06621 7.89566 7.75014 7.10001 7.75014C6.30437 7.75014 5.5413 8.06621 4.97869 8.62881C4.41609 9.19142 4.10001 9.95449 4.10001 10.7501V12.3601H0.890015V11.0801C0.891314 10.1504 1.09611 9.23227 1.49001 8.39014C1.88406 7.54961 2.46564 6.81067 3.19001 6.23014C2.46564 5.6496 1.88406 4.91066 1.49001 4.07014C1.09611 3.228 0.891314 2.30984 0.890015 1.38014L0.890015 0.100136H4.08001V1.71014C4.08001 2.1041 4.15761 2.49421 4.30838 2.85819C4.45914 3.22216 4.68012 3.55288 4.95869 3.83146C5.23727 4.11003 5.56799 4.33101 5.93196 4.48177C6.29594 4.63254 6.68605 4.71014 7.08001 4.71014C7.47398 4.71014 7.86409 4.63254 8.22807 4.48177C8.59204 4.33101 8.92276 4.11003 9.20133 3.83146C9.47991 3.55288 9.70089 3.22216 9.85165 2.85819C10.0024 2.49421 10.08 2.1041 10.08 1.71014V0.100136H10.1ZM62.24 9.25014C61.6417 9.25147 61.0566 9.07386 60.56 8.74014C60.0584 8.41237 59.6706 7.93726 59.45 7.38014C59.2198 6.82687 59.1606 6.21736 59.28 5.63014C59.3933 5.04269 59.6747 4.50076 60.09 4.07014C60.5082 3.64296 61.0445 3.35045 61.63 3.23014C62.218 3.10881 62.8291 3.17166 63.38 3.41014C63.9342 3.64022 64.41 4.02572 64.75 4.52014C65.1308 5.10263 65.3016 5.7975 65.2343 6.49013C65.1671 7.18277 64.8657 7.83179 64.38 8.33014C64.1055 8.62212 63.7739 8.85449 63.4057 9.01277C63.0376 9.17104 62.6408 9.25184 62.24 9.25014ZM68.45 6.19014C68.4496 4.72295 67.9247 3.30424 66.97 2.19014C66.0254 1.08475 64.7233 0.345248 63.29 0.100136C61.8474 -0.153581 60.3616 0.115919 59.1 0.860136C57.8373 1.59664 56.8742 2.75437 56.38 4.13014C55.8854 5.50706 55.8854 7.01321 56.38 8.39014C56.7559 9.414 57.3941 10.3212 58.2306 11.0211C59.0671 11.721 60.0728 12.189 61.1469 12.3783C62.221 12.5676 63.3261 12.4716 64.3515 12.0999C65.3769 11.7282 66.2867 11.0938 66.99 10.2601C66.599 11.004 66.0153 11.6291 65.3 12.0701V12.4001H68.44L68.45 6.19014Z" fill="#FF4E50"/>
</g>
<defs>
<clipPath id="clip0_40_1338">
<rect width="67.56" height="12.47" fill="white" transform="translate(0.890015)"/>
</clipPath>
</defs>
</svg>
