<svg width="32" height="32" viewBox="0 0 32 32" fill="none" xmlns="http://www.w3.org/2000/svg">
<g clip-path="url(#clip0_32_257)">
<path d="M6.62568 17.8811C6.06001 17.8811 5.60176 17.4229 5.60176 16.8572V1.02393C5.60176 0.458252 6.06001 0.000244141 6.62568 0.000244141H30.9756C31.5413 0.000244141 31.9995 0.458252 31.9995 1.02393C31.9995 1.58984 31.5413 2.04785 30.9756 2.04785H7.6496V16.8577C7.6496 17.4229 7.19159 17.8811 6.62568 17.8811Z" fill="#2B98FF"/>
<path d="M30.9761 31.9995H14.5292C13.9635 31.9995 13.5053 31.5415 13.5053 30.9756C13.5053 30.4099 13.964 29.9524 14.5292 29.9524H29.9522V4.42358C29.9522 3.85791 30.4104 3.39966 30.9761 3.39966C31.5417 3.39966 32 3.85791 32 4.42358V30.9763C31.9995 31.5415 31.5413 31.9995 30.9761 31.9995Z" fill="#2B98FF"/>
<path d="M19.961 9.57251H9.84562C9.27971 9.57251 8.8217 9.1145 8.8217 8.54858C8.8217 7.98291 9.27971 7.52466 9.84562 7.52466H19.961C20.5267 7.52466 20.9849 7.98291 20.9849 8.54858C20.9849 9.1145 20.5267 9.57251 19.961 9.57251Z" fill="#2B98FF"/>
<path d="M19.961 17.1238H9.84562C9.27971 17.1238 8.8217 16.6658 8.8217 16.0999C8.8217 15.5342 9.27971 15.0759 9.84562 15.0759H19.961C20.5267 15.0759 20.9849 15.5342 20.9849 16.0999C20.9849 16.6658 20.5267 17.1238 19.961 17.1238Z" fill="#2B98FF"/>
<path d="M19.961 24.6768H16.379C15.8131 24.6768 15.3551 24.2188 15.3551 23.6528C15.3551 23.0872 15.8131 22.6289 16.379 22.6289H19.961C20.5267 22.6289 20.9849 23.0872 20.9849 23.6528C20.9849 24.2188 20.5267 24.6768 19.961 24.6768Z" fill="#2B98FF"/>
<path d="M24.3006 11.0702C24.0384 11.0702 23.7764 10.9703 23.5762 10.7706L22.0032 9.19763C21.6033 8.797 21.6033 8.14929 22.0032 7.74939C22.4031 7.34949 23.0521 7.34949 23.4515 7.74939L24.3001 8.59851L27.0191 5.87903C27.419 5.47913 28.0679 5.47913 28.4673 5.87903C28.8672 6.27942 28.8672 6.92737 28.4673 7.32727L25.024 10.7706C24.8248 10.9703 24.5626 11.0702 24.3006 11.0702Z" fill="#2B98FF"/>
<path d="M24.3006 18.7552C24.0289 18.7552 23.7689 18.6476 23.5762 18.4552L22.0032 16.8817C21.6033 16.4818 21.6033 15.8334 22.0037 15.434C22.4036 15.0341 23.0521 15.0336 23.4515 15.4344L24.3001 16.2831L27.0191 13.5646C27.419 13.1647 28.0679 13.1647 28.4673 13.5646C28.8672 13.9652 28.8672 14.6136 28.4673 15.0128L25.024 18.4557C24.8326 18.6471 24.5718 18.7552 24.3006 18.7552Z" fill="#2B98FF"/>
<path d="M24.3006 26.4396C24.0289 26.4396 23.7689 26.3322 23.5762 26.1395L22.0032 24.566C21.6033 24.1661 21.6033 23.5177 22.0037 23.1183C22.4036 22.7184 23.0521 22.7179 23.4515 23.1188L24.3001 23.9674L27.0191 21.2491C27.419 20.8492 28.0679 20.8492 28.4673 21.2491C28.8672 21.6495 28.8672 22.298 28.4673 22.6974L25.024 26.1403C24.8326 26.3322 24.5718 26.4396 24.3006 26.4396Z" fill="#2B98FF"/>
<path d="M13.4931 25.3896C13.0277 25.3896 12.6066 25.0701 12.497 24.5969L11.5556 20.5505H2.96434L2.02148 24.5974C1.89379 25.1482 1.34204 25.4939 0.791749 25.3623C0.240972 25.2344 -0.10131 24.6836 0.0268624 24.1328L1.15454 19.2942C1.2622 18.8306 1.67529 18.5027 2.15185 18.5027H12.3688C12.8446 18.5027 13.2584 18.8306 13.3661 19.2949L14.4913 24.1333C14.6195 24.6841 14.2767 25.2344 13.726 25.3623C13.6478 25.3813 13.5702 25.3896 13.4931 25.3896Z" fill="#2B98FF"/>
<path d="M10.3752 25.3896C9.86222 25.3896 9.41959 25.0051 9.35905 24.4831L8.7968 19.6447C8.73186 19.083 9.13395 18.5749 9.69572 18.5095C10.2621 18.4463 10.7663 18.8471 10.8312 19.4087L11.3937 24.247C11.4586 24.8088 11.0563 25.3169 10.4945 25.3823C10.4545 25.3874 10.414 25.3896 10.3752 25.3896Z" fill="#2B98FF"/>
<path d="M7.25971 25.3889C6.69404 25.3889 6.23579 24.9309 6.23579 24.365V19.5266C6.23579 18.9609 6.69404 18.5027 7.25971 18.5027C7.82538 18.5027 8.28363 18.9609 8.28363 19.5266V24.365C8.28363 24.9309 7.82489 25.3889 7.25971 25.3889Z" fill="#2B98FF"/>
<path d="M4.14303 25.3896C4.10372 25.3896 4.0632 25.3867 4.02316 25.3823C3.4614 25.3169 3.0593 24.8083 3.12473 24.2463L3.68942 19.4079C3.75534 18.8462 4.26681 18.449 4.8254 18.5095C5.38716 18.5749 5.78926 19.0835 5.72383 19.6455L5.15914 24.4839C5.09761 25.0058 4.65548 25.3896 4.14303 25.3896Z" fill="#2B98FF"/>
<path d="M11.9096 31.9995H2.50413C1.93821 31.9995 1.48021 31.5415 1.48021 30.9756V26.4146C1.48021 25.8489 1.93821 25.3906 2.50413 25.3906C3.0698 25.3906 3.52804 25.8489 3.52804 26.4146V29.9524H10.8861V26.415C10.8861 25.8494 11.3441 25.3914 11.9101 25.3914C12.4757 25.3914 12.934 25.8494 12.934 26.415V30.9763C12.9328 31.5415 12.4748 31.9995 11.9096 31.9995Z" fill="#2B98FF"/>
</g>
<defs>
<clipPath id="clip0_32_257">
<rect width="32" height="32" fill="white"/>
</clipPath>
</defs>
</svg>
