<svg width="32" height="32" viewBox="0 0 32 32" fill="none" xmlns="http://www.w3.org/2000/svg">
<g clip-path="url(#clip0_33_327)">
<path d="M19.8855 0H0.666245V32H24.6657V4.78125L19.8855 0ZM19.9997 2L22.6657 4.6665H19.9997V2ZM23.3337 30.666H1.99974V1.3335H18.6657V6H23.3337V30.666Z" fill="#2B98FF"/>
<path d="M19.9998 23.334H15.9998C15.6316 23.334 15.3333 23.6319 15.3333 24C15.3333 24.3681 15.6316 24.666 15.9998 24.666H19.9998C20.3679 24.666 20.6658 24.3681 20.6658 24C20.6658 23.6319 20.3679 23.334 19.9998 23.334Z" fill="#2B98FF"/>
<path d="M19.9997 12H5.33324C4.96462 12 4.66624 12.2983 4.66624 12.6665C4.66624 13.0347 4.96456 13.3335 5.33324 13.3335H19.9997C20.3679 13.3335 20.6657 13.0347 20.6657 12.6665C20.6657 12.2983 20.3679 12 19.9997 12Z" fill="#2B98FF"/>
<path d="M19.9997 16H5.33324C4.96462 16 4.66624 16.2983 4.66624 16.6665C4.66624 17.0351 4.96456 17.334 5.33324 17.334H19.9997C20.3679 17.334 20.6657 17.0352 20.6657 16.6665C20.6657 16.2983 20.3679 16 19.9997 16Z" fill="#2B98FF"/>
<path d="M12.6662 8H5.33324C4.96462 8 4.66624 8.29831 4.66624 8.6665C4.66624 9.03469 4.96462 9.3335 5.33324 9.3335H12.6662C13.0344 9.3335 13.3332 9.03469 13.3332 8.6665C13.3332 8.29831 13.0344 8 12.6662 8Z" fill="#2B98FF"/>
<path d="M7.99974 20C6.15893 20 4.66624 21.4922 4.66624 23.334C4.66624 24.4239 5.19018 25.3926 5.99974 26V29.334L7.99974 28.666L9.99974 29.334V26C10.8093 25.3926 11.3332 24.4238 11.3332 23.334C11.3332 21.4922 9.84056 20 7.99974 20ZM8.66624 27.4834L8.42112 27.4023L7.99974 27.2617L7.57787 27.4023L7.33324 27.4834V26.5996C7.54856 26.6435 7.77124 26.6659 7.99974 26.6659C8.22824 26.6659 8.45093 26.6435 8.66624 26.5996V27.4834ZM7.99974 25.334C6.89674 25.334 5.99974 24.4356 5.99974 23.334C5.99974 22.2305 6.89674 21.334 7.99974 21.334C9.10274 21.334 9.99974 22.2305 9.99974 23.334C9.99974 24.4356 9.10281 25.334 7.99974 25.334Z" fill="#2B98FF"/>
<path d="M31.3338 8.00001C31.3338 6.52688 30.1394 5.33301 28.6658 5.33301C27.1931 5.33301 25.9998 6.52688 25.9998 8.00001V26H26.8269L25.9998 28.8887L28.6658 30.6661L31.3338 28.8887L30.5056 26H31.3338V8.00001ZM28.6658 29.0644L27.5496 28.3203L28.2136 26H29.1189L29.7829 28.3203L28.6658 29.0644ZM29.9998 24.666H27.3338V8.00001C27.3338 7.26463 27.9314 6.66651 28.6658 6.66651C29.4021 6.66651 29.9998 7.26463 29.9998 8.00001V24.666Z" fill="#2B98FF"/>
<path d="M7.99975 22.666C7.63156 22.666 7.33325 22.9648 7.33325 23.334C7.33325 23.7012 7.63156 24 7.99975 24C8.36794 24 8.66625 23.7012 8.66625 23.334C8.66625 22.9649 8.36794 22.666 7.99975 22.666Z" fill="#2B98FF"/>
</g>
<defs>
<clipPath id="clip0_33_327">
<rect width="32" height="32" fill="white"/>
</clipPath>
</defs>
</svg>
