<svg width="32" height="32" viewBox="0 0 32 32" fill="none" xmlns="http://www.w3.org/2000/svg">
<g clip-path="url(#clip0_33_315)">
<path d="M31.6143 14.4381C31.2689 13.9246 30.7649 13.5203 30.3969 13.2252C30.2885 13.1383 30.1401 13.0193 30.104 12.9791C30.0126 12.8696 29.9241 12.7677 29.8406 12.6717C29.6385 12.4393 29.4096 12.1759 29.3885 12.0569C29.383 12.0259 29.433 11.8834 29.7266 11.6014C30.6758 10.6897 29.9609 9.51239 29.5337 8.80895C29.4273 8.63362 29.2739 8.38109 29.2224 8.24477C29.3312 8.03381 29.4688 7.69228 29.3521 7.30612C29.2049 6.81983 28.7322 6.51955 28.2894 6.29009C28.231 6.2599 28.1795 6.22902 28.1297 6.19927C27.9421 6.0872 27.5931 5.8783 27.1654 6.0887C26.922 6.20833 26.7283 6.42591 26.3862 6.86833C26.3231 6.94996 26.1842 7.07222 26.0372 7.20167C25.9366 7.29024 25.8226 7.39063 25.7072 7.50033C25.457 7.73816 25.4469 8.13376 25.6847 8.38403C25.9225 8.63424 26.3182 8.64437 26.5684 8.40653C26.6667 8.31315 26.7668 8.22508 26.8635 8.13982C27.0566 7.96974 27.239 7.8091 27.3752 7.63303C27.4763 7.50226 27.5517 7.40882 27.6077 7.34225C27.6403 7.36063 27.6757 7.38 27.7142 7.4C27.9445 7.51933 28.0623 7.60396 28.12 7.65309C28.1091 7.67559 28.094 7.70472 28.0734 7.7421C27.7636 8.30227 28.1203 8.8897 28.4652 9.45782C28.6512 9.76397 28.8434 10.0806 28.9166 10.3467C28.9817 10.5835 28.9175 10.6453 28.8607 10.6998C27.5578 11.9512 28.3005 12.8055 28.8972 13.4919C28.9756 13.582 29.0587 13.6776 29.1444 13.7802C29.2527 13.91 29.4046 14.0317 29.6147 14.2004C30.4249 14.8502 30.8742 15.3306 30.7134 15.7818C30.3389 15.7343 29.4897 15.3509 29.1496 15.0579C28.7679 14.7291 27.7491 14.0969 26.5373 15.3275C25.5868 16.2928 25.1795 17.4276 25.4477 18.3629C25.6004 18.8956 25.9736 19.281 26.4457 19.3939C26.95 19.5142 27.4928 19.3107 27.9349 18.8347C28.021 18.7421 28.3833 18.6825 28.6333 18.8471C29.0264 19.1061 28.7721 19.8047 28.6446 20.0931C28.3239 20.8181 28.612 21.3934 28.8223 21.8133C29.0483 22.2646 29.1976 22.5626 28.8607 23.1723C28.5774 23.6847 28.3279 23.8278 28.224 23.8562C28.346 23.5047 28.2929 23.2267 28.2415 22.9573C28.2126 22.8059 28.1798 22.6343 28.1642 22.393C28.1437 22.0769 27.9702 21.8166 27.6882 21.6788C27.0997 21.391 26.2179 21.7769 25.9632 21.95C25.9559 21.9549 25.9366 21.9681 25.8766 21.9557C25.7754 21.9347 25.6792 21.8656 25.6357 21.8191C25.5525 21.3065 25.152 20.9179 24.6155 20.8399C23.9876 20.749 23.3841 21.0958 23.1483 21.6841C22.8892 22.3309 22.9104 22.8426 22.9422 23.1783C22.9288 23.1785 22.9147 23.1786 22.8999 23.1786C22.1567 23.1786 21.8235 23.4862 21.6361 23.8064C21.2326 23.7194 20.8024 23.8041 20.4191 23.8797C20.3679 23.8898 20.307 23.9018 20.2472 23.9126C19.9059 23.0204 19.2451 22.7274 18.6968 22.7636C17.9782 22.8114 17.3807 23.3898 17.3068 24.109C17.282 24.3505 17.2246 24.4348 17.2093 24.4533C17.1918 24.4553 17.1574 24.4498 17.1376 24.4418C16.1922 23.9246 15.5812 24.3723 15.2527 24.6131C15.1858 24.662 15.0863 24.735 15.0438 24.7498C14.6307 24.6902 14.2744 24.5185 13.8895 24.1937C13.6257 23.971 13.2313 24.0045 13.0087 24.2683C12.7861 24.5321 12.8194 24.9264 13.0833 25.1491C13.6523 25.6294 14.2216 25.8961 14.8748 25.9885C14.9351 25.9971 14.9931 26.001 15.0492 26.001C15.4737 26.001 15.7803 25.7762 15.9916 25.6214C16.2564 25.4273 16.2904 25.4024 16.5404 25.54C16.8311 25.6999 17.3329 25.8015 17.7908 25.5616C18.0914 25.404 18.4671 25.0463 18.5503 24.2367C18.5625 24.1174 18.6836 24.0173 18.7796 24.011C18.9144 23.9998 19.0643 24.2358 19.1466 24.5794C19.218 24.8774 19.4827 25.1944 20.0115 25.1944H20.0204C20.2197 25.1931 20.4338 25.1509 20.6605 25.1063C20.8945 25.0602 21.248 24.9905 21.385 25.0316C22.001 25.2161 22.4385 25.0357 22.6857 24.4955C22.6927 24.4803 22.7012 24.4617 22.7085 24.4468C22.7368 24.4394 22.7957 24.4288 22.8999 24.4288C23.3057 24.4288 23.7187 24.3873 23.9898 24.0865C24.2619 23.7846 24.2238 23.419 24.196 23.1521C24.168 22.8836 24.1363 22.5793 24.3087 22.1491C24.3216 22.1172 24.3392 22.0985 24.3678 22.0865C24.3823 22.0805 24.3965 22.0776 24.4088 22.0766C24.4823 22.5384 24.9027 22.8901 25.2519 23.0547C25.7433 23.2865 26.2586 23.2607 26.6651 22.9844C26.7219 22.9474 26.8415 22.9011 26.9576 22.8677C26.976 22.9958 26.9964 23.1025 27.0135 23.1918C27.056 23.4145 27.0522 23.4237 27.0384 23.4584C26.803 24.0453 27.0682 24.7183 27.6422 24.9909C28.2422 25.2756 29.2076 25.1286 29.9547 23.777C30.6099 22.5913 30.2068 21.7863 29.94 21.2536C29.7529 20.8799 29.7135 20.7668 29.7877 20.5988C30.5786 18.8111 29.6304 18.007 29.3209 17.8031C28.6033 17.3304 27.549 17.413 27.0188 17.9839C26.8615 18.1532 26.7535 18.1799 26.7385 18.1788C26.7244 18.1721 26.6613 18.1094 26.6328 17.9457C26.5658 17.5624 26.7396 16.9038 27.428 16.2046C27.95 15.6745 28.1627 15.8576 28.3335 16.005C28.8186 16.4229 30.2127 17.1581 31.038 17.0156C31.3323 16.9647 31.5698 16.8087 31.7089 16.5755C32.1273 15.9094 32.0938 15.1508 31.6143 14.4381Z" fill="#2B98FF"/>
<path d="M16.1271 13.9317C16.696 13.3928 16.9341 13.2167 17.3704 13.355C17.634 13.4387 17.6616 13.4996 17.6936 13.5701C17.8476 13.91 18.1779 14.2586 18.8755 13.9886C19.2697 13.8363 19.5477 13.7352 19.7062 13.6866C19.841 13.7666 20.0232 13.8315 20.3061 13.8549C21.6189 13.9635 21.9477 13.3874 22.1528 12.8386C22.2341 12.621 22.2576 12.5849 22.3458 12.5412C22.3634 12.5325 22.3844 12.5233 22.4079 12.5135C22.7262 12.3798 22.8759 12.0134 22.7422 11.6951C22.6085 11.3768 22.2421 11.2271 21.9238 11.3609C21.872 11.3827 21.8283 11.4024 21.7907 11.4211C21.2475 11.69 21.0811 12.135 20.9818 12.4009C20.9589 12.462 20.925 12.5528 20.9047 12.5821C20.8831 12.5924 20.7638 12.6385 20.4094 12.609C20.3754 12.6062 20.3515 12.6028 20.3358 12.6C19.9438 12.2716 19.5828 12.3775 18.6469 12.7368C18.4815 12.5205 18.2186 12.3125 17.7484 12.1633C16.5703 11.7895 15.8172 12.503 15.2673 13.024C14.5818 13.6734 14.0866 14.1425 12.7537 13.452C12.4555 13.2975 12.1297 13.3163 11.8598 13.5037C11.7041 13.6119 11.5996 13.753 11.5073 13.8775C11.3688 14.0644 11.3223 14.1086 11.2582 14.1138C11.1288 14.1244 11.0224 14.1617 10.939 14.2009C10.9121 14.1732 10.8793 14.1372 10.8405 14.0911C10.621 13.83 10.3321 13.775 10.0279 13.8013C10.2148 13.2686 10.3378 12.703 10.3378 12.1371C10.3378 9.72984 8.39246 7.75785 5.99743 7.73216C5.98968 7.73184 5.98193 7.73172 5.97418 7.73172L5.96343 7.73184C5.94674 7.73153 5.93768 7.73172 5.92749 7.73216C3.53239 7.75785 1.58703 9.72984 1.58703 12.1371C1.58703 13.1993 2.02076 14.2604 2.49592 15.1046C1.88974 15.4037 1.89687 16.0447 1.90099 16.3983C1.90637 16.8593 1.89237 16.9858 1.51952 17.1301C1.33976 17.1997 1.20206 17.3484 1.14655 17.5331C1.03954 17.8887 1.02116 18.1896 1.27912 18.5016C1.28087 18.5038 1.28281 18.506 1.28469 18.5083C1.29481 18.5374 1.32969 18.6623 1.32969 19.0031C1.32969 19.3633 1.39651 19.6929 1.45014 19.9577C1.48483 20.1287 1.53665 20.3843 1.51758 20.468C1.49064 20.4911 1.33819 20.5995 0.786517 20.6685C0.536994 20.6996 0.322099 20.8235 0.181524 21.0175C-0.0926886 21.3956 0.00125751 21.8795 0.0920783 22.3474C0.13402 22.5636 0.181649 22.8088 0.173648 22.9661C0.137395 23.6787 0.689758 23.8905 0.897652 23.9701C1.09367 24.0453 1.22318 24.0949 1.30013 24.6333C1.38307 25.2141 1.96813 25.6554 2.62994 25.6554C2.66494 25.6554 2.70019 25.6541 2.73551 25.6516C3.33081 25.6092 4.02488 25.1566 4.04013 24.0227C4.24233 23.985 4.5758 23.9065 4.81595 23.5846C5.04397 23.279 5.11766 22.8632 5.05485 22.2366C5.01753 21.8645 5.17579 21.6697 5.29999 21.6502C5.40344 21.634 5.47732 21.8013 5.50908 21.9494C5.6879 22.7841 6.2362 23.6731 7.05809 23.7776C7.50588 23.8347 8.15094 23.6791 8.68743 22.6179C8.69324 22.6146 8.70306 22.6098 8.71793 22.6043C9.04159 22.4841 9.20654 22.1244 9.0864 21.8008C8.96627 21.4772 8.60655 21.3122 8.28289 21.4323C7.96155 21.5515 7.71747 21.7629 7.57695 22.0436C7.38487 22.4272 7.24223 22.5177 7.20817 22.5347C7.10435 22.4948 6.83745 22.1823 6.7315 21.6874C6.51398 20.6723 5.73672 20.3159 5.10648 20.4151C4.3951 20.5266 3.69928 21.2465 3.81098 22.3611C3.83411 22.5921 3.82636 22.7239 3.81617 22.7927C3.80279 22.7952 3.78936 22.7977 3.77729 22.7999C3.53314 22.8439 2.7902 22.9781 2.7902 23.9846C2.7902 24.252 2.72319 24.3796 2.681 24.3973C2.63731 24.4156 2.56693 24.3992 2.52561 24.3783C2.3431 23.2691 1.76273 22.9691 1.42239 22.8328C1.4117 22.5851 1.36313 22.3351 1.31925 22.109C1.30481 22.0347 1.287 21.9426 1.27287 21.8575C1.89899 21.7398 2.29503 21.5301 2.53618 21.1946C2.87965 20.7168 2.77114 20.1815 2.67538 19.7091C2.62844 19.4774 2.57981 19.2377 2.57981 19.0028C2.57981 18.5501 2.53168 18.2601 2.44679 18.0456C3.16449 17.5399 3.15561 16.7805 3.15098 16.3834C3.1503 16.3229 3.14936 16.2423 3.15211 16.1811C3.1618 16.1764 3.17024 16.1706 3.17974 16.1657C3.20561 16.2012 3.23112 16.236 3.25574 16.269C3.52502 16.6298 4.9209 18.43 5.96243 18.43C7.00396 18.43 8.3999 16.6298 8.66912 16.269C8.87038 15.9992 9.11572 15.6444 9.35562 15.2324C9.47544 15.2038 9.5907 15.1732 9.69759 15.1445C9.80278 15.1161 9.93361 15.0809 10.0314 15.0603C10.2563 15.2934 10.5468 15.5084 10.9026 15.5083C11.067 15.5083 11.2454 15.4624 11.4376 15.3512C11.9709 15.2789 12.2761 14.9322 12.456 14.696C14.398 15.5696 15.4323 14.5899 16.1271 13.9317ZM5.96249 17.1731C5.70959 17.0816 4.96378 16.4981 4.17489 15.4091C3.32475 14.2356 2.83721 13.043 2.83721 12.1372C2.83721 10.4085 4.23571 8.99309 5.95474 8.98221C5.95737 8.98215 5.95993 8.98215 5.96249 8.98208C5.96512 8.98215 5.96768 8.98215 5.9703 8.98221C7.68928 8.99309 9.08778 10.4084 9.08778 12.1372C9.08778 12.7747 8.84538 13.5543 8.40597 14.3693C8.40534 14.3704 8.40472 14.3716 8.40409 14.3727C8.21951 14.7146 8.00105 15.0626 7.75009 15.409C6.96115 16.4981 6.21539 17.0816 5.96249 17.1731Z" fill="#2B98FF"/>
<path d="M5.96248 10.2622C4.92851 10.2622 4.08731 11.1034 4.08731 12.1374C4.08731 13.1713 4.92851 14.0126 5.96248 14.0126C6.99645 14.0126 7.83766 13.1713 7.83766 12.1374C7.83766 11.1034 6.99645 10.2622 5.96248 10.2622ZM5.96248 12.7624C5.61783 12.7624 5.33743 12.482 5.33743 12.1374C5.33743 11.7927 5.61783 11.5123 5.96248 11.5123C6.30714 11.5123 6.58754 11.7927 6.58754 12.1374C6.58754 12.482 6.30714 12.7624 5.96248 12.7624Z" fill="#2B98FF"/>
<path d="M24.3882 11.0624C24.5051 11.1598 24.6469 11.2072 24.788 11.2072C24.9671 11.2072 25.1449 11.1306 25.2686 10.9823L25.2689 10.9819C25.4899 10.7168 25.4539 10.3228 25.1887 10.1018C24.9235 9.88093 24.5292 9.91681 24.3082 10.182C24.0872 10.4472 24.123 10.8413 24.3882 11.0624Z" fill="#2B98FF"/>
<path d="M11.7001 22.2321L11.6998 22.2319C11.4058 22.0511 11.021 22.1428 10.8401 22.4367C10.6591 22.7307 10.751 23.1158 11.045 23.2968C11.1471 23.3597 11.2602 23.3895 11.372 23.3895C11.5818 23.3895 11.7868 23.2839 11.9049 23.092C12.0859 22.7981 11.9942 22.413 11.7001 22.2321Z" fill="#2B98FF"/>
</g>
<defs>
<clipPath id="clip0_33_315">
<rect width="32" height="32" fill="white"/>
</clipPath>
</defs>
</svg>
