<svg width="32" height="32" viewBox="0 0 32 32" fill="none" xmlns="http://www.w3.org/2000/svg">
<g clip-path="url(#clip0_33_276)">
<path d="M26.815 24.8111L16.3517 21.3754C16.4077 20.6584 16.095 19.9621 15.5218 19.5277C14.9489 19.0933 14.194 18.9806 13.5188 19.2282L6.21284 12.9147C6.09254 12.8105 5.93213 12.7657 5.77537 12.792C5.61861 12.8183 5.48164 12.9134 5.40222 13.0512L4.58093 14.4777C3.11827 13.9311 1.4749 14.522 0.695265 15.8751L0.428618 16.3366C0.00208557 17.0754 -0.111708 17.9543 0.112494 18.7777C0.336958 19.6009 0.880669 20.3006 1.62332 20.7209L9.76545 24.8949C9.61598 25.5222 9.7579 26.1834 10.1516 26.6944L8.47232 29.6032C8.36451 29.79 8.37961 30.0233 8.51112 30.1946C8.64236 30.3657 8.86395 30.441 9.07227 30.385L10.743 29.9371L11.1906 31.6079C11.2463 31.816 11.4218 31.9699 11.6354 31.9983C11.6585 32.0014 11.6817 32.003 11.7052 32.0032C11.8958 32.0032 12.0721 31.9017 12.1676 31.7366L14.4672 27.753L20.0736 31.3749C20.8089 31.7996 21.6831 31.9147 22.5033 31.6946C23.3236 31.4746 24.0228 30.9374 24.4467 30.2014L24.7133 29.7402L27.1132 25.5829C27.1934 25.4436 27.2067 25.2759 27.1494 25.1256C27.0918 24.9756 26.9697 24.8595 26.8171 24.8095L26.815 24.8111ZM14.7625 20.3035C15.2724 20.598 15.4471 21.2504 15.1523 21.7605L12.7525 25.9204C12.4561 26.4264 11.807 26.598 11.2992 26.3048C10.7914 26.0116 10.6154 25.3634 10.9052 24.8538L13.305 20.697C13.4459 20.4506 13.6792 20.2704 13.9534 20.1967C14.2274 20.1228 14.5195 20.1613 14.7651 20.3035H14.7625ZM6.00583 14.1433L11.3463 18.76L5.51471 14.9936L6.00583 14.1433ZM1.13898 18.4889C0.991338 17.9423 1.06816 17.3595 1.35225 16.8699L1.6189 16.4084C2.20271 15.3967 3.49116 15.0426 4.50984 15.6139L12.1585 20.5535L10.2131 23.9241L2.1324 19.784C1.64155 19.5025 1.28377 19.0361 1.13898 18.4889ZM11.8869 30.0879L11.6354 29.1459C11.5591 28.8616 11.2666 28.6926 10.982 28.7691L10.0397 29.0212L11.0049 27.3499C11.7645 27.6709 12.6416 27.5228 13.2532 26.9696L13.5696 27.1733L11.8869 30.0879ZM20.6298 30.465L13.8795 26.104L15.8788 22.641L23.0067 26.2965C24.0269 26.8855 24.3767 28.1902 23.7876 29.2105L23.521 29.672C22.9367 30.6829 21.6482 31.0366 20.6298 30.465ZM24.9719 27.1584C24.73 26.397 24.211 25.7545 23.5176 25.3579L20.7647 23.9499L25.8588 25.6222L24.9719 27.1584Z" fill="#2B98FF"/>
<path d="M31.3092 5.86971L31.9709 3.82492C32.0516 3.57492 31.9386 3.30331 31.7043 3.18482L29.7924 2.20773L28.8149 0.293671C28.6964 0.0592962 28.4248 -0.0539851 28.1748 0.0270045L26.1307 0.691067L24.0855 0.0290879C23.8358 -0.0516413 23.5642 0.0613795 23.4457 0.295755L22.4692 2.20773L20.5553 3.18534C20.5467 3.19003 20.5407 3.1981 20.5324 3.20305H11.1984C9.72666 3.20461 8.53377 4.39758 8.53195 5.86971V13.203C8.53195 13.4976 8.77074 13.7364 9.06525 13.7364C9.36002 13.7364 9.59854 13.4976 9.59854 13.203V5.86971C9.59854 4.98586 10.3149 4.26971 11.1984 4.26971H20.4348L20.9524 5.86971L20.2908 7.91451C20.2098 8.16424 20.323 8.43586 20.5574 8.55435L22.4713 9.53195L23.4489 11.446C23.5673 11.6804 23.8389 11.7937 24.0889 11.7127L26.1307 11.0484L26.664 11.221V22.9364C26.664 23.2309 26.9028 23.4697 27.1973 23.4697C27.4921 23.4697 27.7306 23.2309 27.7306 22.9364V11.5661L28.1761 11.7101C28.4258 11.7911 28.6974 11.6778 28.8159 11.4434L29.7935 9.52935L31.7074 8.55175C31.9417 8.43326 32.055 8.16164 31.974 7.91164L31.3092 5.86971ZM30.2426 6.03378L30.8173 7.81034L29.1547 8.66008C29.0547 8.71112 28.9735 8.79263 28.9227 8.89263L28.072 10.5554L26.295 9.98065C26.1885 9.94576 26.0737 9.94576 25.9672 9.98065L24.1902 10.5554L23.3405 8.89263C23.2895 8.79237 23.2083 8.71112 23.108 8.66008L21.4454 7.81034L22.0201 6.03378C22.0555 5.92727 22.0555 5.8119 22.0201 5.70539L21.4454 3.92883L23.108 3.07909C23.2083 3.02805 23.2895 2.9468 23.3405 2.8468L24.1902 1.18378L25.9672 1.75878C26.0737 1.79341 26.1885 1.79341 26.295 1.75878L28.072 1.18378L28.9216 2.8468C28.9724 2.94654 29.0537 3.02805 29.1537 3.07909L30.8163 3.92883L30.2413 5.70539C30.207 5.81216 30.207 5.927 30.2413 6.03378H30.2426Z" fill="#2B98FF"/>
<path d="M26.1307 3.20312C24.6581 3.20312 23.4642 4.39688 23.4642 5.86979C23.4642 7.34245 24.6581 8.53646 26.1307 8.53646C27.6035 8.53646 28.7972 7.34245 28.7972 5.86979C28.7956 4.39766 27.6027 3.20469 26.1307 3.20312ZM26.1307 7.46979C25.2472 7.46979 24.5308 6.75339 24.5308 5.86979C24.5308 4.98594 25.2472 4.26979 26.1307 4.26979C27.0145 4.26979 27.7306 4.98594 27.7306 5.86979C27.7306 6.75339 27.0145 7.46979 26.1307 7.46979Z" fill="#2B98FF"/>
<path d="M13.3316 13.8699H22.3976C22.6924 13.8699 22.9309 13.6311 22.9309 13.3366C22.9309 13.042 22.6924 12.8032 22.3976 12.8032H13.3316C13.0371 12.8032 12.7983 13.042 12.7983 13.3366C12.7983 13.6311 13.0371 13.8699 13.3316 13.8699Z" fill="#2B98FF"/>
<path d="M22.3976 15.4697H14.9315C14.637 15.4697 14.3982 15.7085 14.3982 16.0031C14.3982 16.2976 14.637 16.5364 14.9315 16.5364H22.3976C22.6924 16.5364 22.9309 16.2976 22.9309 16.0031C22.9309 15.7085 22.6924 15.4697 22.3976 15.4697Z" fill="#2B98FF"/>
<path d="M22.3976 18.1365H18.6646C18.37 18.1365 18.1313 18.3753 18.1313 18.6698C18.1313 18.9643 18.37 19.2031 18.6646 19.2031H22.3976C22.6924 19.2031 22.9309 18.9643 22.9309 18.6698C22.9309 18.3753 22.6924 18.1365 22.3976 18.1365Z" fill="#2B98FF"/>
<path d="M14.3982 8.53639H17.598C17.8927 8.53639 18.1313 8.29759 18.1313 8.00306C18.1313 7.70853 17.8927 7.46973 17.598 7.46973H14.3982C13.5147 7.46973 12.7983 8.18587 12.7983 9.06973C12.7983 9.95332 13.5147 10.6697 14.3982 10.6697H17.598C17.8927 10.6697 18.1313 10.4309 18.1313 10.1364C18.1313 9.84186 17.8927 9.60306 17.598 9.60306H14.3982C14.1037 9.60306 13.8649 9.36426 13.8649 9.06973C13.8649 8.7752 14.1037 8.53639 14.3982 8.53639Z" fill="#2B98FF"/>
</g>
<defs>
<clipPath id="clip0_33_276">
<rect width="32" height="32" fill="white"/>
</clipPath>
</defs>
</svg>
