<svg width="32" height="32" viewBox="0 0 32 32" fill="none" xmlns="http://www.w3.org/2000/svg">
<path d="M17.8203 5.21031C17.7948 5.17688 17.7649 5.14694 17.7314 5.12144C16.4106 4.11531 15.0418 4.44256 14.2713 5.21319C13.5007 5.98375 13.1736 7.3525 14.1797 8.67338C14.2052 8.70681 14.2351 8.73675 14.2686 8.76225C14.8534 9.20763 15.4474 9.39163 15.9949 9.39163C16.684 9.39163 17.2994 9.09988 17.7287 8.67044C18.4992 7.89994 18.8264 6.53119 17.8203 5.21031ZM17.0658 8.00756C16.6271 8.44638 15.7979 8.715 14.8876 8.05431C14.2269 7.144 14.4955 6.31481 14.9342 5.87606C15.373 5.43725 16.2021 5.16869 17.1124 5.82938C17.7731 6.73975 17.5045 7.56888 17.0658 8.00756Z" fill="#2B98FF"/>
<path d="M21.4298 25.5731C21.4298 26.0009 21.7779 26.349 22.2057 26.349H25.0677C25.4955 26.349 25.8436 26.0009 25.8436 25.5731V22.1333C25.8436 21.7055 25.4955 21.3574 25.0677 21.3574H22.2057C21.7779 21.3574 21.4298 21.7055 21.4298 22.1333V25.5731ZM22.3673 22.2949H24.9061V25.4115H22.3673V22.2949Z" fill="#2B98FF"/>
<path d="M9.79431 26.349C10.2221 26.349 10.5702 26.0009 10.5702 25.5731V22.1333C10.5702 21.7055 10.2221 21.3574 9.79431 21.3574H6.93231C6.5045 21.3574 6.15644 21.7055 6.15644 22.1333V25.5731C6.15644 26.0009 6.5045 26.349 6.93231 26.349H9.79431ZM7.09394 22.2949H9.63269V25.4115H7.09394V22.2949Z" fill="#2B98FF"/>
<path d="M28.7011 29.0941H27.348V13.1381H28.1844C28.8971 13.1381 29.4769 12.5583 29.4769 11.8456V10.3744C29.4769 9.66169 28.8971 9.08181 28.1844 9.08181H25.6831C25.4242 9.08181 25.2144 9.29163 25.2144 9.55056C25.2144 9.8095 25.4242 10.0193 25.6831 10.0193H28.1844C28.3801 10.0193 28.5394 10.1786 28.5394 10.3744V11.8456C28.5394 12.0414 28.3801 12.2006 28.1844 12.2006H18.0626L18.2047 11.6836C18.4832 11.5539 18.7503 11.3993 19.0029 11.2217L20.435 11.5957C20.8923 11.7151 21.3767 11.5127 21.613 11.1033L22.2389 10.0193H23.8081C24.067 10.0193 24.2769 9.8095 24.2769 9.55056C24.2769 9.29163 24.067 9.08181 23.8081 9.08181H22.5448C22.5196 8.85113 22.4189 8.62887 22.2479 8.45562L21.2079 7.40225C21.2219 7.24625 21.229 7.09206 21.229 6.94175C21.229 6.79138 21.2219 6.63719 21.2079 6.48112L22.2479 5.42781C22.5799 5.0915 22.6468 4.57075 22.4105 4.16144L21.613 2.78006C21.3766 2.37075 20.8921 2.16806 20.435 2.28775L19.0029 2.66175C18.7504 2.48425 18.4833 2.32969 18.2047 2.19981L17.8129 0.773812C17.6877 0.318312 17.2701 0 16.7975 0H15.2025C14.7299 0 14.3123 0.318312 14.1871 0.774L13.7953 2.2C13.5167 2.32981 13.2496 2.48444 12.9971 2.66194L11.565 2.28794C11.1077 2.16825 10.6233 2.37094 10.387 2.78025L9.58944 4.16162C9.35319 4.57094 9.42006 5.09169 9.75212 5.428L10.7921 6.48131C10.7781 6.63737 10.771 6.79156 10.771 6.94194C10.771 7.09225 10.7781 7.24644 10.7921 7.40244L9.75212 8.45581C9.58106 8.62906 9.48037 8.85125 9.45525 9.082H3.81562C3.10294 9.082 2.52312 9.66181 2.52312 10.3746V11.8458C2.52312 12.5584 3.10294 13.1383 3.81562 13.1383H4.652V16.345C4.652 16.6039 4.86187 16.8137 5.12075 16.8137C5.37962 16.8137 5.5895 16.6039 5.5895 16.345V13.1381H14.1954C14.33 13.5786 14.7398 13.8836 15.2025 13.8836H16.7976C17.2602 13.8836 17.6701 13.5786 17.8046 13.1381H26.4106V29.0941H20.6924V20.9974C21.4726 20.9508 22.0931 20.3013 22.0931 19.5095C22.0931 18.6876 21.4244 18.0189 20.6025 18.0189H11.3975C10.5756 18.0189 9.90694 18.6876 9.90694 19.5095C9.90694 20.3013 10.5274 20.9508 11.3076 20.9974V29.0941H5.5895V18.2201C5.5895 17.9612 5.37962 17.7514 5.12075 17.7514C4.86187 17.7514 4.652 17.9612 4.652 18.2201V29.094H3.29894C2.87112 29.094 2.52306 29.4421 2.52306 29.8699V31.2241C2.52306 31.6519 2.87112 31.9999 3.29894 31.9999H28.7011C29.1289 31.9999 29.477 31.6519 29.477 31.2241V29.8699C29.4769 29.4421 29.1289 29.0941 28.7011 29.0941ZM3.46062 11.8456V10.3744C3.46062 10.1786 3.61987 10.0193 3.81562 10.0193H9.76112L10.3869 11.1033C10.6232 11.5126 11.1077 11.7152 11.565 11.5957L12.9971 11.2217C13.2497 11.3993 13.5168 11.5538 13.7953 11.6836L13.9374 12.2006H3.81562C3.61987 12.2006 3.46062 12.0414 3.46062 11.8456ZM16.7975 12.9461H15.2025C15.0709 12.9461 15.0857 12.8029 14.9997 12.5288L14.6402 11.22C14.6017 11.0802 14.5008 10.9661 14.3667 10.9108C14.0159 10.7662 13.6844 10.5744 13.3814 10.3406C13.2984 10.2766 13.1975 10.2429 13.0949 10.2429C13.0554 10.2429 13.0156 10.2479 12.9765 10.2581L11.3281 10.6886C11.1614 10.7318 11.1636 10.5021 10.4322 9.30669C10.4266 9.28919 10.3398 9.19481 10.4192 9.11444L11.6161 7.90219C11.7179 7.79912 11.7662 7.65481 11.7472 7.51125C11.7215 7.31694 11.7084 7.12537 11.7084 6.94194C11.7084 6.75838 11.7215 6.56687 11.7473 6.37262C11.7664 6.229 11.7179 6.08475 11.6162 5.98163L10.4192 4.76937C10.3827 4.7325 10.3754 4.67531 10.4013 4.63044L11.1988 3.24906C11.2247 3.20419 11.2777 3.18206 11.3281 3.19513L12.9765 3.62562C13.117 3.66225 13.2664 3.63181 13.3814 3.54319C13.6842 3.30944 14.0157 3.11756 14.3667 2.97294C14.5008 2.91769 14.6017 2.8035 14.6402 2.66375L15.0911 1.02256C15.1049 0.972562 15.1507 0.937688 15.2025 0.937688H16.7976C16.8494 0.937688 16.8952 0.972625 16.9089 1.02256L17.3599 2.66375C17.3983 2.8035 17.4992 2.91769 17.6333 2.97294C17.9844 3.11756 18.3159 3.30944 18.6187 3.54319C18.7336 3.63181 18.883 3.66225 19.0236 3.62562L20.672 3.19513C20.7223 3.18231 20.7753 3.20425 20.8013 3.24906L21.5987 4.63044C21.6247 4.67531 21.6173 4.7325 21.5809 4.76937L20.3839 5.98163C20.2822 6.08469 20.2338 6.229 20.2528 6.37262C20.2786 6.56687 20.2917 6.75844 20.2917 6.94194C20.2917 7.12544 20.2786 7.31694 20.2529 7.51125C20.2339 7.65481 20.2823 7.79906 20.384 7.90219L21.5809 9.11444C21.6559 9.19031 21.5869 9.27063 21.5559 9.32769L20.8013 10.6347C20.7753 10.6796 20.7222 10.7017 20.6721 10.6887L19.0237 10.2582C18.8832 10.2215 18.7338 10.252 18.6189 10.3406C18.3159 10.5744 17.9843 10.7663 17.6335 10.9108C17.4994 10.9661 17.3984 11.0802 17.3601 11.22L17.0005 12.5288C16.9972 12.5393 16.9942 12.5501 16.9917 12.5609L16.9092 12.8612C16.8952 12.9112 16.8494 12.9461 16.7975 12.9461ZM19.7549 21.0001V29.0941H16.4687V21.0001H19.7549ZM10.8444 19.5095C10.8444 19.2046 11.0925 18.9564 11.3975 18.9564H20.6025C20.9074 18.9564 21.1556 19.2046 21.1556 19.5095C21.1556 19.8144 20.9075 20.0626 20.6025 20.0626H11.3975C11.0925 20.0626 10.8444 19.8144 10.8444 19.5095ZM12.2451 21.0001H15.5312V29.0941H12.2451V21.0001ZM28.5394 31.0625H3.46056V30.0316H28.5395L28.5394 31.0625Z" fill="#2B98FF"/>
</svg>
