<svg width="32" height="32" viewBox="0 0 32 32" fill="none" xmlns="http://www.w3.org/2000/svg">
<path d="M18.8125 6.625C13.6431 6.625 9.4375 10.8306 9.4375 16C9.4375 21.1694 13.6431 25.375 18.8125 25.375C23.9819 25.375 28.1875 21.1694 28.1875 16C28.1875 10.8306 23.9819 6.625 18.8125 6.625ZM18.8125 23.5C14.677 23.5 11.3125 20.1355 11.3125 16C11.3125 11.8645 14.677 8.5 18.8125 8.5C22.948 8.5 26.3125 11.8645 26.3125 16C26.3125 20.1355 22.948 23.5 18.8125 23.5Z" fill="#2B98FF"/>
<path d="M28.1563 6.68181C25.6776 4.19619 22.3721 2.822 18.8487 2.8125C18.8364 2.8125 18.8245 2.8125 18.8123 2.8125C16.126 2.8125 13.5538 3.61081 11.3522 5.125H4.96931C3.401 5.125 2.125 6.401 2.125 7.96931C2.125 9.53763 3.401 10.8136 4.96931 10.8136H6.68469C6.46319 11.3313 6.27519 11.8629 6.12187 12.4056H2.84437C1.276 12.4056 0 13.6816 0 15.25C0 16.8184 1.276 18.0943 2.84431 18.0943H5.79138C5.87731 18.6326 5.99656 19.1641 6.14831 19.6863H6.10413C4.53575 19.6863 3.25981 20.9623 3.25981 22.5307C3.25981 24.0991 4.53581 25.375 6.10413 25.375H9.53794C10.6937 26.5198 12.0322 27.4298 13.5218 28.0829C15.1933 28.8159 16.9734 29.1875 18.8125 29.1875C26.0841 29.1875 32 23.2716 32 16C32 12.4766 30.635 9.16731 28.1563 6.68181ZM18.8125 27.3125C15.6818 27.3125 12.7692 26.0621 10.6114 23.7917L10.3342 23.5H6.10419C5.56969 23.5 5.13487 23.0651 5.13487 22.5307C5.13487 21.9962 5.56975 21.5613 6.10419 21.5613H8.86112L8.33425 20.2697C7.91763 19.2483 7.654 18.1716 7.55069 17.0693L7.47106 16.2192H2.84431C2.30988 16.2193 1.875 15.7845 1.875 15.25C1.875 14.7155 2.30988 14.2806 2.84431 14.2806H7.60506L7.76762 13.5456C8.01656 12.4201 8.43544 11.3434 9.01256 10.3455L9.82625 8.93863H4.96931C4.43481 8.93863 4 8.50375 4 7.96931C4 7.43488 4.43488 7 4.96931 7H11.9523L12.1981 6.82256C14.1329 5.42544 16.4192 4.6875 18.8124 4.6875H18.8437C25.0642 4.70431 30.125 9.77906 30.125 16C30.125 22.2378 25.0502 27.3125 18.8125 27.3125Z" fill="#2B98FF"/>
<path d="M19.75 10.6875H17.875V16.9375H22.375V15.0625H19.75V10.6875Z" fill="#2B98FF"/>
</svg>
