<svg width="83" height="83" viewBox="0 0 83 83" fill="none" xmlns="http://www.w3.org/2000/svg">
<g clip-path="url(#clip0_6_35)">
<path d="M46.388 23.933C44.6346 17.6609 46.2268 10.6499 51.1471 5.71494C56.0556 0.829828 62.9904 -0.771176 69.2214 0.920727L58.6595 11.4856L61.4334 21.8247L71.7871 24.5927L82.3549 14.0366C84.038 20.2735 82.4341 27.2024 77.5314 32.1051C72.4058 37.2395 65.0078 38.7496 58.5392 36.6413L58.4777 36.6999L15.0277 80.1499C13.3094 81.8652 11.0545 82.7332 8.80257 82.7332C6.54475 82.7332 4.30159 81.8652 2.57743 80.1499C-0.859154 76.7192 -0.859154 71.1508 2.57743 67.6996L46.388 23.933ZM8.04606 78.675C9.8963 78.675 11.3917 77.1707 11.3917 75.3117C11.3917 73.4526 9.8963 71.9513 8.04606 71.9513C6.17822 71.9513 4.66811 73.4526 4.66811 75.3117C4.66811 77.1707 6.17822 78.675 8.04606 78.675Z" fill="white" fill-opacity="0.3"/>
</g>
<defs>
<clipPath id="clip0_6_35">
<rect width="83" height="83" fill="white" transform="matrix(-1 0 0 1 83 0)"/>
</clipPath>
</defs>
</svg>
