<svg width="18" height="18" viewBox="0 0 18 18" fill="none" xmlns="http://www.w3.org/2000/svg">
<path d="M0.918023 0.273114C0.703179 0.26839 0.566461 0.290848 0.566461 0.290848C0.524665 0.296127 0.484367 0.309789 0.44799 0.331037C0.411613 0.352285 0.379908 0.380667 0.354779 0.41448C0.32965 0.448293 0.311616 0.486844 0.301762 0.527804C0.291907 0.568763 0.290435 0.611299 0.297434 0.652842C0.304434 0.694384 0.319759 0.734084 0.342491 0.769553C0.365222 0.805022 0.394889 0.835519 0.42971 0.859232C0.464531 0.882944 0.503787 0.899375 0.545118 0.907531C0.586449 0.915687 0.629002 0.91541 0.670221 0.906702C0.670221 0.906702 1.05962 0.84303 1.52837 1.01051C1.99713 1.17792 2.52869 1.54777 2.81744 2.55836C3.08001 3.47736 3.33066 4.36693 3.56817 5.21952L5.77764 13.5117C5.78306 13.5326 5.79063 13.5529 5.80023 13.5722C6.0652 14.6115 6.2525 15.3593 6.2525 15.3593L6.26227 15.4002C6.06503 15.6215 5.94122 15.9093 5.94122 16.2266C5.94122 16.9133 6.50457 17.4748 7.19122 17.4748C7.87787 17.4748 8.44183 16.9133 8.44183 16.2266C8.44183 15.9975 8.37457 15.7845 8.26544 15.5991H12.9914C12.8927 15.7777 12.8315 15.9797 12.8315 16.1967C12.8315 16.8834 13.3954 17.4467 14.0821 17.4467C14.7687 17.4467 15.3303 16.8834 15.3303 16.1967C15.3303 15.51 14.7687 14.9461 14.0821 14.9461C13.9934 14.9461 13.907 14.9567 13.8233 14.9742H6.79449C6.78146 14.921 6.66687 14.4572 6.48626 13.7431L14.9933 13.7236C15.061 13.7235 15.1268 13.7014 15.1808 13.6607C15.2349 13.62 15.2743 13.5628 15.293 13.4978L17.7936 4.74781C17.807 4.70131 17.8095 4.65234 17.8007 4.60475C17.792 4.55715 17.7723 4.51221 17.7433 4.47351C17.7142 4.43481 17.6766 4.40341 17.6333 4.38174C17.5901 4.36007 17.5423 4.34871 17.494 4.34862H3.971C3.79144 3.70831 3.61147 3.06739 3.41741 2.3882C3.08116 1.21129 2.36333 0.645446 1.73834 0.42223C1.42584 0.310615 1.13287 0.278086 0.918023 0.273114ZM4.14861 4.97406H17.0783L14.7577 13.0985L6.32574 13.1192C5.8911 11.4147 5.18091 8.68499 4.17791 5.08396L4.14861 4.97406ZM14.1627 15.5795C14.4718 15.6187 14.7046 15.8754 14.7046 16.1966C14.7046 16.5455 14.431 16.8216 14.0821 16.8216C13.7332 16.8216 13.4571 16.5455 13.4571 16.1966C13.4571 15.9098 13.6449 15.6746 13.9051 15.599H14.054C14.0911 15.599 14.1279 15.5924 14.1627 15.5795ZM7.19122 15.6015C7.5401 15.6015 7.81683 15.8776 7.81683 16.2265C7.81683 16.5754 7.5401 16.8515 7.19122 16.8515C6.84234 16.8515 6.56622 16.5754 6.56622 16.2265C6.56622 15.8776 6.84234 15.6015 7.19122 15.6015Z" fill="white"/>
</svg>
