<svg width="25" height="25" viewBox="0 0 25 25" fill="none" xmlns="http://www.w3.org/2000/svg">
<path d="M12.5 25C12.3273 25.0001 12.1595 24.9429 12.0227 24.8375C11.5322 24.4578 0.00188269 15.4625 0.00188269 8.04922C-0.0436469 5.9657 0.738189 3.94903 2.17618 2.44083C3.61418 0.932621 5.59114 0.0557912 7.67416 0.00234358C9.446 0.00406208 11.1584 0.641663 12.5 1.79922C13.841 0.640809 15.5531 0.00234873 17.3251 0C19.4082 0.0532444 21.3854 0.929985 22.8235 2.43821C24.2617 3.94644 25.0436 5.96322 24.9981 8.04687C24.9981 15.4633 13.4678 24.4531 12.9773 24.8352C12.841 24.9417 12.673 24.9998 12.5 25ZM7.67416 1.5625C6.00546 1.61579 4.42578 2.32794 3.28073 3.54315C2.13568 4.75836 1.51848 6.37769 1.56415 8.04687C1.56415 13.9117 10.3355 21.4453 12.5 23.2148C14.6645 21.4453 23.4359 13.907 23.4359 8.04687C23.4815 6.37756 22.8642 4.75811 21.719 3.54288C20.5738 2.32765 18.9939 1.61559 17.3251 1.5625C16.5266 1.56565 15.737 1.73082 15.0042 2.048C14.2714 2.36518 13.6105 2.82779 13.0616 3.40781C12.9114 3.55432 12.7098 3.63631 12.5 3.63631C12.2902 3.63631 12.0886 3.55432 11.9384 3.40781C11.3894 2.82766 10.7284 2.36497 9.99548 2.04778C9.26251 1.73059 8.4728 1.5655 7.67416 1.5625Z" fill="#3B3B3B"/>
</svg>
