<svg width="46" height="13" viewBox="0 0 46 13" fill="none" xmlns="http://www.w3.org/2000/svg">
<path d="M10.48 12H8.064V2.592H5.264C5.2 3.08267 5.13067 3.616 5.056 4.192C4.992 4.768 4.91733 5.35467 4.832 5.952C4.75733 6.53867 4.67733 7.09867 4.592 7.632C4.50667 8.15467 4.42133 8.61867 4.336 9.024C4.19733 9.68533 4.01067 10.2507 3.776 10.72C3.552 11.1893 3.23733 11.5467 2.832 11.792C2.43733 12.0373 1.92 12.16 1.28 12.16C1.06667 12.16 0.864 12.144 0.672 12.112C0.48 12.08 0.298667 12.0373 0.128 11.984V10C0.266667 10.0427 0.4 10.08 0.528 10.112C0.666667 10.144 0.816 10.16 0.976 10.16C1.18933 10.16 1.36533 10.0907 1.504 9.952C1.64267 9.81333 1.76533 9.57867 1.872 9.248C1.97867 8.90667 2.08533 8.43733 2.192 7.84C2.24533 7.584 2.30933 7.22133 2.384 6.752C2.45867 6.272 2.544 5.712 2.64 5.072C2.74667 4.42133 2.85333 3.71733 2.96 2.96C3.06667 2.192 3.168 1.39733 3.264 0.575999H10.48V12ZM23.7299 6.272C23.7299 7.15733 23.6179 7.96267 23.3939 8.688C23.1805 9.40267 22.8499 10.0213 22.4019 10.544C21.9645 11.0667 21.3992 11.4667 20.7059 11.744C20.0232 12.0213 19.2179 12.16 18.2899 12.16C17.3619 12.16 16.5512 12.0213 15.8579 11.744C15.1752 11.456 14.6099 11.056 14.1619 10.544C13.7245 10.0213 13.3939 9.39733 13.1699 8.672C12.9565 7.94667 12.8499 7.14133 12.8499 6.256C12.8499 5.072 13.0419 4.04267 13.4259 3.168C13.8205 2.29333 14.4179 1.616 15.2179 1.136C16.0285 0.645333 17.0579 0.4 18.3059 0.4C19.5432 0.4 20.5619 0.645333 21.3619 1.136C22.1619 1.616 22.7539 2.29867 23.1379 3.184C23.5325 4.05867 23.7299 5.088 23.7299 6.272ZM15.3939 6.272C15.3939 7.072 15.4952 7.76 15.6979 8.336C15.9005 8.912 16.2152 9.35467 16.6419 9.664C17.0685 9.97333 17.6179 10.128 18.2899 10.128C18.9832 10.128 19.5379 9.97333 19.9539 9.664C20.3805 9.35467 20.6899 8.912 20.8819 8.336C21.0845 7.76 21.1859 7.072 21.1859 6.272C21.1859 5.06667 20.9619 4.12267 20.5139 3.44C20.0659 2.75733 19.3299 2.416 18.3059 2.416C17.6232 2.416 17.0685 2.57067 16.6419 2.88C16.2152 3.18933 15.9005 3.632 15.6979 4.208C15.4952 4.784 15.3939 5.472 15.3939 6.272ZM33.3123 0.575999V2.576H28.5123V12H26.0963V0.575999H33.3123ZM45.1205 6.272C45.1205 7.15733 45.0085 7.96267 44.7845 8.688C44.5712 9.40267 44.2405 10.0213 43.7925 10.544C43.3552 11.0667 42.7898 11.4667 42.0965 11.744C41.4138 12.0213 40.6085 12.16 39.6805 12.16C38.7525 12.16 37.9418 12.0213 37.2485 11.744C36.5658 11.456 36.0005 11.056 35.5525 10.544C35.1152 10.0213 34.7845 9.39733 34.5605 8.672C34.3472 7.94667 34.2405 7.14133 34.2405 6.256C34.2405 5.072 34.4325 4.04267 34.8165 3.168C35.2112 2.29333 35.8085 1.616 36.6085 1.136C37.4192 0.645333 38.4485 0.4 39.6965 0.4C40.9338 0.4 41.9525 0.645333 42.7525 1.136C43.5525 1.616 44.1445 2.29867 44.5285 3.184C44.9232 4.05867 45.1205 5.088 45.1205 6.272ZM36.7845 6.272C36.7845 7.072 36.8858 7.76 37.0885 8.336C37.2912 8.912 37.6058 9.35467 38.0325 9.664C38.4592 9.97333 39.0085 10.128 39.6805 10.128C40.3738 10.128 40.9285 9.97333 41.3445 9.664C41.7712 9.35467 42.0805 8.912 42.2725 8.336C42.4752 7.76 42.5765 7.072 42.5765 6.272C42.5765 5.06667 42.3525 4.12267 41.9045 3.44C41.4565 2.75733 40.7205 2.416 39.6965 2.416C39.0138 2.416 38.4592 2.57067 38.0325 2.88C37.6058 3.18933 37.2912 3.632 37.0885 4.208C36.8858 4.784 36.7845 5.472 36.7845 6.272Z" fill="#3B3B3B"/>
</svg>
