<svg width="35" height="27" viewBox="0 0 35 27" fill="none" xmlns="http://www.w3.org/2000/svg">
<g clip-path="url(#clip0_40_1319)">
<path d="M34.26 26.1402C34.2857 26.1301 34.3143 26.1301 34.34 26.1402C34.3453 26.1493 34.348 26.1596 34.348 26.1702C34.348 26.1807 34.3453 26.1911 34.34 26.2002C34.3444 26.2078 34.3467 26.2164 34.3467 26.2252C34.3467 26.234 34.3444 26.2426 34.34 26.2502L34.42 26.3402H34.35L34.27 26.2502V26.3402H34.21V26.1002L34.26 26.1402ZM34.26 26.4802C34.2859 26.4893 34.3141 26.4893 34.34 26.4802H34.41C34.4152 26.4571 34.4152 26.4332 34.41 26.4102C34.4192 26.3843 34.4192 26.3561 34.41 26.3302C34.4207 26.3011 34.4207 26.2692 34.41 26.2402C34.4152 26.2171 34.4152 26.1932 34.41 26.1702L34.33 26.0002H34.16L34.09 26.0502V26.1202C34.0846 26.1499 34.0846 26.1804 34.09 26.2102C34.0851 26.2366 34.0851 26.2637 34.09 26.2902V26.3602H34.16C34.1893 26.3694 34.2207 26.3694 34.25 26.3602M34.25 25.8702H34.36C34.3942 25.8831 34.425 25.9036 34.45 25.9302C34.4745 25.9569 34.4948 25.9872 34.51 26.0202C34.5156 26.0566 34.5156 26.0937 34.51 26.1302C34.5147 26.1633 34.5147 26.197 34.51 26.2302L34.45 26.3202C34.425 26.3468 34.3942 26.3673 34.36 26.3802C34.3239 26.3895 34.2861 26.3895 34.25 26.3802C34.2106 26.3899 34.1694 26.3899 34.13 26.3802L34.04 26.3202L33.98 26.2302C33.9753 26.197 33.9753 26.1633 33.98 26.1302C33.9744 26.0937 33.9744 26.0566 33.98 26.0202C33.9952 25.9872 34.0155 25.9569 34.04 25.9302L34.13 26.0002H34.25M8.16 25.0002C8.16783 24.834 8.22425 24.6738 8.32228 24.5393C8.42031 24.4049 8.55564 24.3022 8.71148 24.244C8.86732 24.1857 9.03683 24.1745 9.19899 24.2117C9.36116 24.2488 9.50884 24.3328 9.62375 24.4531C9.73866 24.5734 9.81573 24.7248 9.84542 24.8885C9.8751 25.0522 9.85609 25.221 9.79075 25.374C9.7254 25.527 9.6166 25.6575 9.47781 25.7492C9.33903 25.841 9.17637 25.89 9.01 25.8902C8.89451 25.8918 8.77994 25.8695 8.67344 25.8248C8.56695 25.7801 8.47081 25.7139 8.39104 25.6304C8.31127 25.5469 8.24958 25.4478 8.20983 25.3394C8.17008 25.2309 8.15311 25.1155 8.16 25.0002ZM10.42 25.0002V23.6002H9.83V23.9402C9.72559 23.8053 9.59016 23.6975 9.43522 23.6262C9.28027 23.5548 9.11039 23.5219 8.94 23.5302C8.57235 23.5606 8.22958 23.7281 7.97971 23.9995C7.72984 24.2709 7.59114 24.6263 7.59114 24.9952C7.59114 25.3641 7.72984 25.7195 7.97971 25.9909C8.22958 26.2623 8.57235 26.4298 8.94 26.4602C9.11432 26.4603 9.28612 26.4185 9.44098 26.3385C9.59584 26.2584 9.72924 26.1424 9.83 26.0002V26.3402H10.43L10.42 25.0002ZM30.97 25.0002C30.9778 24.834 31.0343 24.6738 31.1323 24.5393C31.2303 24.4049 31.3656 24.3022 31.5215 24.244C31.6773 24.1857 31.8468 24.1745 32.009 24.2117C32.1712 24.2488 32.3188 24.3328 32.4338 24.4531C32.5487 24.5734 32.6257 24.7248 32.6554 24.8885C32.6851 25.0522 32.6661 25.221 32.6007 25.374C32.5354 25.527 32.4266 25.6575 32.2878 25.7492C32.149 25.841 31.9864 25.89 31.82 25.8902C31.7045 25.8918 31.5899 25.8695 31.4834 25.8248C31.3769 25.7801 31.2808 25.7139 31.201 25.6304C31.1213 25.5469 31.0596 25.4478 31.0198 25.3394C30.9801 25.2309 30.9631 25.1155 30.97 25.0002ZM33.23 25.0002V22.4302H32.62V23.9002C32.5202 23.7627 32.3871 23.653 32.2331 23.5812C32.0791 23.5095 31.9094 23.4782 31.74 23.4902C31.3724 23.5206 31.0296 23.6881 30.7797 23.9595C30.5298 24.2309 30.3911 24.5863 30.3911 24.9552C30.3911 25.3241 30.5298 25.6795 30.7797 25.9509C31.0296 26.2223 31.3724 26.3898 31.74 26.4202C31.9088 26.4277 32.077 26.3944 32.2302 26.323C32.3834 26.2516 32.5171 26.1443 32.62 26.0102V26.3502H33.23V25.0002ZM17.97 24.0002C18.154 23.9975 18.3316 24.0673 18.4645 24.1946C18.5973 24.3218 18.6748 24.4963 18.68 24.6802H17.23C17.2403 24.4927 17.3235 24.3167 17.4617 24.1897C17.6 24.0627 17.7823 23.9947 17.97 24.0002ZM17.97 23.4602C17.7735 23.4555 17.5784 23.4936 17.398 23.5716C17.2176 23.6496 17.0563 23.7658 16.9251 23.9122C16.794 24.0586 16.6961 24.2316 16.6383 24.4194C16.5804 24.6072 16.5639 24.8054 16.59 25.0002C16.5787 25.1923 16.6077 25.3847 16.6752 25.5649C16.7426 25.7452 16.8471 25.9093 16.9817 26.0468C17.1164 26.1843 17.2783 26.2921 17.4571 26.3633C17.636 26.4345 17.8277 26.4675 18.02 26.4602C18.4479 26.4589 18.8592 26.2944 19.17 26.0002L18.87 25.5502C18.6407 25.736 18.3551 25.8382 18.06 25.8402C17.8593 25.8572 17.6597 25.796 17.5031 25.6692C17.3466 25.5425 17.2451 25.3601 17.22 25.1602H19.3C19.3 25.0802 19.3 25.0102 19.3 24.9302C19.3181 24.7444 19.2972 24.557 19.2387 24.3798C19.1801 24.2026 19.0852 24.0395 18.96 23.9011C18.8348 23.7628 18.682 23.652 18.5116 23.5761C18.3411 23.5002 18.1566 23.4607 17.97 23.4602ZM25.32 25.0002C25.3071 24.8815 25.3193 24.7614 25.3559 24.6478C25.3924 24.5341 25.4525 24.4294 25.5322 24.3406C25.612 24.2517 25.7095 24.1806 25.8185 24.1319C25.9276 24.0833 26.0456 24.0581 26.165 24.0581C26.2844 24.0581 26.4024 24.0833 26.5115 24.1319C26.6205 24.1806 26.718 24.2517 26.7978 24.3406C26.8775 24.4294 26.9376 24.5341 26.9741 24.6478C27.0107 24.7614 27.0229 24.8815 27.01 25.0002C27.0229 25.1189 27.0107 25.2389 26.9741 25.3526C26.9376 25.4662 26.8775 25.5709 26.7978 25.6598C26.718 25.7487 26.6205 25.8198 26.5115 25.8684C26.4024 25.9171 26.2844 25.9422 26.165 25.9422C26.0456 25.9422 25.9276 25.9171 25.8185 25.8684C25.7095 25.8198 25.612 25.7487 25.5322 25.6598C25.4525 25.5709 25.3924 25.4662 25.3559 25.3526C25.3193 25.2389 25.3071 25.1189 25.32 25.0002ZM27.59 25.0002V23.6002H26.98V23.9402C26.8802 23.8027 26.7471 23.693 26.5931 23.6212C26.4391 23.5495 26.2694 23.5182 26.1 23.5302C25.7324 23.5606 25.3896 23.7281 25.1397 23.9995C24.8898 24.2709 24.7511 24.6263 24.7511 24.9952C24.7511 25.3641 24.8898 25.7195 25.1397 25.9909C25.3896 26.2623 25.7324 26.4298 26.1 26.4602C26.2686 26.4661 26.4362 26.432 26.5892 26.3607C26.7421 26.2895 26.876 26.1831 26.98 26.0502V26.3902H27.59V25.0002ZM21.89 25.0002C21.8827 25.1964 21.9165 25.392 21.9892 25.5745C22.0619 25.7569 22.1719 25.9222 22.3122 26.0596C22.4525 26.1971 22.6199 26.3037 22.8038 26.3727C22.9877 26.4416 23.1839 26.4715 23.38 26.4602C23.7425 26.4765 24.0984 26.3591 24.38 26.1302L24.09 25.6402C23.8757 25.7992 23.6168 25.8866 23.35 25.8902C23.1289 25.8668 22.9244 25.7624 22.7757 25.5971C22.627 25.4319 22.5447 25.2175 22.5447 24.9952C22.5447 24.7729 22.627 24.5585 22.7757 24.3932C22.9244 24.228 23.1289 24.1236 23.35 24.1002C23.6168 24.1037 23.8757 24.1912 24.09 24.3502L24.38 23.8602C24.0984 23.6313 23.7425 23.5139 23.38 23.5302C23.1831 23.5188 22.9859 23.5489 22.8013 23.6184C22.6167 23.688 22.4488 23.7955 22.3084 23.9341C22.1679 24.0726 22.0581 24.2391 21.9861 24.4227C21.914 24.6064 21.8813 24.8031 21.89 25.0002ZM29.73 23.5302C29.581 23.5248 29.4334 23.5601 29.303 23.6324C29.1727 23.7046 29.0644 23.811 28.99 23.9402V23.6002H28.39V26.3902H29V24.7902C29 24.3202 29.2 24.0702 29.59 24.0702C29.7204 24.0633 29.8506 24.0873 29.97 24.1402L30.16 23.5602C30.0215 23.5134 29.8762 23.4897 29.73 23.4902M13.43 23.7802C13.0877 23.5714 12.6905 23.4704 12.29 23.4902C11.58 23.4902 11.13 23.8302 11.13 24.3802C11.13 24.9302 11.47 25.1202 12.13 25.2102H12.42C12.75 25.2102 12.91 25.3402 12.91 25.5002C12.91 25.6602 12.69 25.8402 12.27 25.8402C11.9363 25.8504 11.6087 25.7483 11.34 25.5502L11.06 26.0202C11.4139 26.2677 11.8384 26.394 12.27 26.3802C13.07 26.3802 13.54 26.0002 13.54 25.4702C13.54 24.9402 13.17 24.7202 12.54 24.6302H12.25C11.99 24.6302 11.77 24.5502 11.77 24.3602C11.77 24.1702 11.97 24.0302 12.31 24.0302C12.6152 24.0383 12.9138 24.1207 13.18 24.2702L13.43 23.7802ZM21.28 23.4902C21.131 23.4848 20.9834 23.5201 20.853 23.5924C20.7227 23.6646 20.6144 23.771 20.54 23.9002V23.5602H19.94V26.3502H20.54V24.7902C20.54 24.3202 20.74 24.0702 21.14 24.0702C21.2704 24.064 21.4004 24.088 21.52 24.1402L21.71 23.5602C21.5713 23.5142 21.4261 23.4906 21.28 23.4902ZM16.09 23.5602H15.09V22.7102H14.48V23.5602H13.91V24.1102H14.48V25.3902C14.48 26.0402 14.73 26.3902 15.48 26.3902C15.7477 26.3907 16.0105 26.3181 16.24 26.1802L16.07 25.6602C15.9039 25.7511 15.7191 25.8024 15.53 25.8102C15.22 25.8102 15.12 25.6302 15.12 25.3502V24.1102H16.12L16.09 23.5602ZM7 26.3502V24.6002C7.01737 24.4511 7.00095 24.3 6.95196 24.1581C6.90297 24.0162 6.82267 23.8872 6.71701 23.7806C6.61136 23.6739 6.48305 23.5925 6.34162 23.5422C6.20018 23.4919 6.04924 23.4742 5.9 23.4902C5.70453 23.4733 5.50816 23.51 5.33197 23.5964C5.15579 23.6827 5.00645 23.8154 4.9 23.9802C4.80653 23.8218 4.6712 23.6923 4.50889 23.6058C4.34658 23.5194 4.16358 23.4794 3.98 23.4902C3.8194 23.4809 3.65917 23.5138 3.51529 23.5858C3.37141 23.6577 3.2489 23.7661 3.16 23.9002V23.5602H2.56V26.3502H3.18V24.8002C3.16705 24.7076 3.17423 24.6133 3.20104 24.5237C3.22785 24.4342 3.27368 24.3514 3.33538 24.2812C3.39708 24.2109 3.4732 24.1548 3.55856 24.1167C3.64392 24.0786 3.73651 24.0593 3.83 24.0602C4.24 24.0602 4.44 24.3202 4.44 24.8002V26.3502H5.06V24.8002C5.04835 24.7053 5.05743 24.6091 5.08663 24.5181C5.11582 24.4271 5.16443 24.3435 5.2291 24.2731C5.29376 24.2028 5.37293 24.1473 5.46114 24.1105C5.54936 24.0737 5.6445 24.0566 5.74 24.0602C6.15 24.0602 6.35 24.3202 6.35 24.8002V26.3502H7Z" fill="#231F20"/>
<path d="M34.57 17.0499V16.6499H34.47L34.34 16.9299L34.22 16.6499H34.11V17.0499H34.19V16.7499L34.3 17.0099H34.38L34.5 16.7499V17.0499H34.57ZM33.9 17.0499V16.7199H34.03V16.6499H33.69V16.7199H33.83V17.0499H33.9Z" fill="#CE8010"/>
<path d="M22.47 18.81H13.26V2.25H22.47V18.81Z" fill="#FF5F00"/>
<path d="M13.83 10.53C13.8264 8.93709 14.1845 7.36414 14.8774 5.92981C15.5703 4.49549 16.5799 3.23725 17.83 2.25001C16.2765 1.02943 14.411 0.270507 12.4466 0.0599689C10.4822 -0.15057 8.4982 0.195768 6.72133 1.0594C4.94445 1.92304 3.44638 3.26913 2.3983 4.94385C1.35023 6.61858 0.794434 8.55437 0.794434 10.53C0.794434 12.5056 1.35023 14.4414 2.3983 16.1162C3.44638 17.7909 4.94445 19.137 6.72133 20.0006C8.4982 20.8642 10.4822 21.2106 12.4466 21C14.411 20.7895 16.2765 20.0306 17.83 18.81C16.5799 17.8228 15.5703 16.5645 14.8774 15.1302C14.1845 13.6959 13.8264 12.1229 13.83 10.53Z" fill="#C2001B"/>
<path d="M34.89 10.53C34.8848 12.4995 34.3274 14.428 33.2811 16.0965C32.2348 17.765 30.7415 19.1067 28.9709 19.9691C27.2004 20.8314 25.2234 21.18 23.2646 20.9751C21.3059 20.7702 19.4438 20.0201 17.89 18.81C19.1388 17.8191 20.1465 16.5578 20.8373 15.1211C21.5282 13.6844 21.8841 12.1096 21.8783 10.5155C21.8725 8.92131 21.5052 7.34922 20.804 5.91754C20.1028 4.48587 19.0859 3.2319 17.83 2.25004C19.3838 1.03994 21.2459 0.289846 23.2046 0.0849694C25.1634 -0.119908 27.1404 0.228641 28.9109 1.09102C30.6815 1.95341 32.1748 3.29506 33.2211 4.96358C34.2674 6.63209 34.8248 8.5606 34.83 10.53" fill="#CE801B"/>
</g>
<defs>
<clipPath id="clip0_40_1319">
<rect width="34.06" height="26.5" fill="white" transform="translate(0.830017)"/>
</clipPath>
</defs>
</svg>
