<svg width="25" height="25" viewBox="0 0 25 25" fill="none" xmlns="http://www.w3.org/2000/svg">
<path d="M21.3309 3.66279C18.9683 1.30021 15.8341 0 12.4937 0C9.15332 0 6.01907 1.30021 3.65649 3.66279C-0.910109 8.22939 -1.22723 15.5391 2.86896 20.4704C2.46727 21.2791 1.82245 22.2199 0.865789 22.6903C0.405958 22.9175 0.146973 23.4091 0.226254 23.9165C0.305535 24.4239 0.696656 24.8203 1.20406 24.8996C1.4419 24.9366 1.78017 24.9736 2.19243 24.9736C3.29708 24.9736 4.92499 24.7146 6.58989 23.5148C8.44507 24.5137 10.4747 25 12.4884 25C15.7231 25 18.926 23.7474 21.3362 21.3372C23.6988 18.9746 24.999 15.8404 24.999 12.5C24.999 9.15962 23.6935 6.02537 21.3309 3.66279ZM20.3214 20.3277C16.7537 23.8953 11.2305 24.6036 6.88587 22.0507C6.60046 21.8816 6.24634 21.9345 6.01907 22.1617C5.99792 22.1723 5.97678 22.1882 5.96093 22.204C4.52858 23.314 3.12266 23.5465 2.19243 23.5465H2.18714C3.26008 22.7643 3.93661 21.6015 4.33302 20.6977C4.39644 20.5444 4.40702 20.3858 4.37002 20.2378C4.35416 20.0951 4.29602 19.9524 4.1956 19.8362C0.326677 15.4651 0.527523 8.8055 4.66072 4.6723C8.9789 0.354123 16.0032 0.354123 20.3161 4.6723C24.6396 8.99049 24.6396 16.0095 20.3214 20.3277Z" fill="white"/>
<path d="M12.4937 13.3773C12.9783 13.3773 13.3711 12.9845 13.3711 12.4999C13.3711 12.0154 12.9783 11.6226 12.4937 11.6226C12.0091 11.6226 11.6163 12.0154 11.6163 12.4999C11.6163 12.9845 12.0091 13.3773 12.4937 13.3773Z" fill="white"/>
<path d="M17.018 13.3773C17.5026 13.3773 17.8954 12.9845 17.8954 12.4999C17.8954 12.0154 17.5026 11.6226 17.018 11.6226C16.5334 11.6226 16.1406 12.0154 16.1406 12.4999C16.1406 12.9845 16.5334 13.3773 17.018 13.3773Z" fill="white"/>
<path d="M7.96936 13.3773C8.45392 13.3773 8.84674 12.9845 8.84674 12.4999C8.84674 12.0154 8.45392 11.6226 7.96936 11.6226C7.4848 11.6226 7.09198 12.0154 7.09198 12.4999C7.09198 12.9845 7.4848 13.3773 7.96936 13.3773Z" fill="white"/>
</svg>
