<svg width="42" height="12" viewBox="0 0 42 12" fill="none" xmlns="http://www.w3.org/2000/svg">
<g clip-path="url(#clip0_40_1327)">
<path d="M11.94 0C11.4791 0.000262594 11.0306 0.149319 10.6613 0.424993C10.2919 0.700666 10.0214 1.08822 9.89001 1.53C9.52001 2.92 8.42001 6.79 8.39001 6.89H8.09001C8.09001 6.89 6.96001 2.94 6.57001 1.52C6.43512 1.08497 6.16615 0.703717 5.80157 0.430725C5.43698 0.157733 4.99543 0.00697665 4.54001 0L0.890015 0V11.61H4.54001V4.71H4.89001L7.02001 11.61H9.51001L11.63 4.72H11.94V11.61H15.59V0H11.94Z" fill="#4DB45E"/>
<path d="M25.27 0C24.9263 0.0534572 24.6019 0.19349 24.3272 0.406918C24.0526 0.620347 23.8367 0.900152 23.7 1.22L21.11 6.89H20.81V0H17.16V11.61H20.6C20.9514 11.5572 21.2842 11.4181 21.5686 11.2052C21.853 10.9923 22.0803 10.7122 22.23 10.39L24.76 4.71H25.06V11.61H28.71V0H25.27Z" fill="#4DB45E"/>
<path d="M30.34 5.27002V11.61H33.98V7.91002H37.98C38.7973 7.91015 39.5944 7.65612 40.2609 7.18312C40.9274 6.71011 41.4304 6.04154 41.7 5.27002H30.34Z" fill="#4DB45E"/>
<path d="M37.94 0H29.82C30.0234 1.07846 30.526 2.07796 31.2705 2.88431C32.0149 3.69066 32.9712 4.27134 34.03 4.56C34.5259 4.69227 35.0368 4.7595 35.55 4.76H41.81C41.8593 4.50956 41.8861 4.25521 41.89 4C41.8901 2.94774 41.4755 1.93783 40.7362 1.1891C39.9968 0.44038 38.9922 0.0131532 37.94 0Z" fill="url(#paint0_linear_40_1327)"/>
</g>
<defs>
<linearGradient id="paint0_linear_40_1327" x1="29.82" y1="2.38" x2="41.89" y2="2.38" gradientUnits="userSpaceOnUse">
<stop offset="0.3" stop-color="#00B4E6"/>
<stop offset="1" stop-color="#088CCB"/>
</linearGradient>
<clipPath id="clip0_40_1327">
<rect width="41" height="11.61" fill="white" transform="translate(0.890015)"/>
</clipPath>
</defs>
</svg>
