<svg width="32" height="26" viewBox="0 0 32 26" fill="none" xmlns="http://www.w3.org/2000/svg">
<path d="M31.7427 0.361696C31.5571 0.159196 31.2951 0.0439453 31.0205 0.0439453H22.038H16.0497H7.06739C6.55951 0.0439453 6.13582 0.432134 6.09151 0.938135L5.64589 6.03221H3.57451C3.03351 6.03221 2.59494 6.47083 2.59494 7.01183C2.59494 7.55283 3.03357 7.9914 3.57451 7.9914H5.47445L5.12195 12.0205H0.979564C0.438626 12.0204 0 12.459 0 13C0 13.541 0.438626 13.9796 0.979564 13.9796H4.95051L4.59807 18.0087H2.47669C1.93569 18.0087 1.49713 18.4473 1.49713 18.9883C1.49713 19.5293 1.93575 19.9679 2.47669 19.9679H4.4267L3.99595 24.8912C3.97201 25.1647 4.06407 25.4359 4.24957 25.6384C4.43513 25.8409 4.6972 25.9561 4.97182 25.9561H28.925C29.4329 25.9561 29.8566 25.5679 29.9009 25.0619L31.9964 1.10882C32.0203 0.835322 31.9283 0.564134 31.7427 0.361696ZM16.9473 2.00301H20.969L20.6165 6.03208H16.5949L16.9473 2.00301ZM28.0274 23.997H6.04082L6.39326 19.9679H8.46489C9.00589 19.9679 9.44446 19.5293 9.44446 18.9884C9.44446 18.4474 9.00583 18.0088 8.46489 18.0088H6.5647L6.9172 13.9797H6.96783C7.50883 13.9797 7.94739 13.541 7.94739 13.0001C7.94739 12.4998 7.57208 12.0879 7.08783 12.0286L7.44102 7.9914H9.56271C10.1037 7.9914 10.5423 7.55277 10.5423 7.01183C10.5423 6.47083 10.1036 6.03221 9.56271 6.03221H7.61252L7.96495 2.00314H14.9806L14.5499 6.92646C14.526 7.20002 14.618 7.47121 14.8035 7.67365C14.9891 7.87615 15.2512 7.9914 15.5258 7.9914H21.514C22.0219 7.9914 22.4456 7.60321 22.4899 7.09721L22.9355 2.00314H29.9514L28.0274 23.997Z" fill="#2B98FF"/>
</svg>
