<svg width="32" height="32" viewBox="0 0 32 32" fill="none" xmlns="http://www.w3.org/2000/svg">
<g clip-path="url(#clip0_21_90)">
<path d="M16 10.6667C13.0586 10.6667 10.6667 13.0593 10.6667 16.0001C10.6667 18.9408 13.0586 21.3334 16 21.3334C18.9414 21.3334 21.3333 18.9408 21.3333 16.0001C21.3333 13.0593 18.9414 10.6667 16 10.6667ZM16 20.0001C13.7942 20.0001 12 18.2058 12 16.0001C12 13.7943 13.7942 12.0001 16 12.0001C18.2057 12.0001 20 13.7943 20 16.0001C20 18.2058 18.2057 20.0001 16 20.0001Z" fill="#2B98FF"/>
<path d="M26.1614 13.3536L24.0299 12.8204C23.9961 12.7358 23.9622 12.6524 23.9271 12.5691L25.0572 10.6863C25.2148 10.4239 25.1731 10.088 24.957 9.87187L22.1276 7.04312C21.9101 6.82568 21.5742 6.78593 21.3124 6.94287L19.4309 8.07306C19.3476 8.03787 19.2642 8.00406 19.1796 7.97087L18.6471 5.83868C18.5728 5.54181 18.3059 5.3335 17.9999 5.3335H13.9999C13.6939 5.3335 13.427 5.54181 13.3528 5.83868L12.8203 7.97087C12.7356 8.00406 12.6523 8.03793 12.5689 8.07306L10.6875 6.94281C10.4258 6.78593 10.0898 6.82562 9.87238 7.04306L7.04294 9.87181C6.82681 10.0879 6.78513 10.4239 6.94269 10.6862L8.07288 12.5691C8.03769 12.6524 8.00388 12.7357 7.97 12.8204L5.8385 13.3536C5.54163 13.4271 5.33331 13.6941 5.33331 14.0001V18.0001C5.33331 18.3061 5.54163 18.573 5.8385 18.6466L7.97 19.1797C8.00388 19.2644 8.03769 19.3477 8.07288 19.4311L6.94269 21.3139C6.78513 21.5762 6.82681 21.9122 7.04294 22.1283L9.87238 24.9564C10.0898 25.1746 10.4271 25.2129 10.6862 25.0567L12.569 23.9271C12.6523 23.9623 12.7357 23.9961 12.8203 24.0293L13.3529 26.1615C13.4271 26.4584 13.694 26.6667 14 26.6667H18C18.306 26.6667 18.5729 26.4584 18.6471 26.1615L19.1797 24.0293C19.2643 23.9961 19.3477 23.9622 19.431 23.9271L21.3138 25.0567C21.5716 25.2129 21.9102 25.1745 22.1276 24.9564L24.9571 22.1283C25.1732 21.9122 25.2149 21.5762 25.0573 21.3139L23.9271 19.4311C23.9623 19.3477 23.9961 19.2644 24.03 19.1797L26.1615 18.6466C26.4584 18.573 26.6667 18.3061 26.6667 18.0001V14.0001C26.6667 13.6941 26.4583 13.4272 26.1614 13.3536ZM25.3333 17.4793L23.3633 17.9721C23.1445 18.0262 22.9687 18.1882 22.8945 18.4012C22.8021 18.6701 22.6979 18.9305 22.5755 19.1831C22.4778 19.3856 22.4882 19.6245 22.6041 19.8172L23.6458 21.5535L21.5534 23.6459L19.8164 22.6042C19.6249 22.4884 19.3854 22.4779 19.1822 22.5762C18.9296 22.6986 18.6692 22.8015 18.3997 22.8952C18.1874 22.9688 18.026 23.1446 17.9713 23.3634L17.4791 25.3334H14.5208L14.0286 23.3634C13.9739 23.1446 13.8125 22.9688 13.6003 22.8952C13.3307 22.8015 13.0703 22.6986 12.8177 22.5762C12.6132 22.4773 12.3737 22.4884 12.1836 22.6042L10.4466 23.6459L8.35413 21.5535L9.39581 19.8172C9.51169 19.6245 9.52213 19.3856 9.42444 19.1831C9.30206 18.9304 9.19788 18.6701 9.10544 18.4012C9.03119 18.1883 8.85544 18.0262 8.63669 17.9721L6.66663 17.4793V14.521L8.63669 14.0282C8.85544 13.9741 9.03125 13.8121 9.10544 13.5991C9.19788 13.3302 9.30206 13.0698 9.42444 12.8172C9.52213 12.6147 9.51169 12.3758 9.39581 12.1831L8.35413 10.4468L10.4466 8.35368L12.1836 9.396C12.375 9.51125 12.6146 9.52293 12.8177 9.424C13.0703 9.30162 13.3307 9.19875 13.6003 9.105C13.8125 9.03143 13.9739 8.85562 14.0286 8.63687L14.5208 6.66681H17.4791L17.9713 8.63687C18.026 8.85562 18.1874 9.03143 18.3997 9.105C18.6692 9.19875 18.9296 9.30162 19.1822 9.424C19.3841 9.52231 19.6249 9.51125 19.8164 9.396L21.5534 8.35368L23.6458 10.4468L22.6041 12.1831C22.4882 12.3758 22.4778 12.6147 22.5755 12.8172C22.6979 13.0699 22.8021 13.3302 22.8945 13.5991C22.9688 13.812 23.1445 13.9741 23.3633 14.0282L25.3333 14.521V17.4793Z" fill="#2B98FF"/>
<path d="M16 0C7.17706 0 0 7.17775 0 16C0 24.8223 7.17706 32 16 32C24.8229 32 32 24.8223 32 16C32 7.17775 24.8229 0 16 0ZM16 30.6667C7.91275 30.6667 1.33331 24.0872 1.33331 16C1.33331 7.91275 7.91275 1.33331 16 1.33331C24.0872 1.33331 30.6667 7.91275 30.6667 16C30.6667 24.0872 24.0872 30.6667 16 30.6667Z" fill="#2B98FF"/>
</g>
<defs>
<clipPath id="clip0_21_90">
<rect width="32" height="32" fill="white"/>
</clipPath>
</defs>
</svg>
