<svg width="32" height="32" viewBox="0 0 32 32" fill="none" xmlns="http://www.w3.org/2000/svg">
<g clip-path="url(#clip0_21_104)">
<path d="M6.01213 6.01213C8.68 3.34425 12.2271 1.875 16 1.875C18.8853 1.875 21.6747 2.75269 24.0207 4.37294L22.2096 4.55869L22.4009 6.42387L27.2759 5.92387L26.7759 1.04887L24.9107 1.24019L25.0728 2.82087C22.4179 0.991062 19.263 0 16 0C11.7262 0 7.70831 1.66431 4.68631 4.68631C1.66431 7.70831 0 11.7262 0 16C0 19.1995 0.9415 22.2878 2.72269 24.9309L4.27756 23.8831C4.256 23.8511 4.23506 23.8188 4.21375 23.7866C2.68362 21.4756 1.875 18.786 1.875 16C1.875 12.2271 3.34425 8.68 6.01213 6.01213Z" fill="#2B98FF"/>
<path d="M29.2774 7.06909L27.7224 8.1169C27.744 8.1489 27.7649 8.18134 27.7862 8.21347C29.3163 10.5245 30.125 13.214 30.125 16C30.125 19.773 28.6557 23.32 25.9879 25.9879C23.3201 28.6558 19.773 30.125 16 30.125C13.1147 30.125 10.3252 29.2473 7.97931 27.6271L9.79037 27.4413L9.59906 25.5762L4.72406 26.0762L5.22406 30.9512L7.08931 30.7598L6.92719 29.1792C9.58212 31.009 12.7371 32 16 32C20.2737 32 24.2917 30.3357 27.3137 27.3137C30.3357 24.2917 32 20.2738 32 16C32 12.8005 31.0586 9.71222 29.2774 7.06909Z" fill="#2B98FF"/>
<path d="M7.81144 17.9676L9.02519 16.8458C9.94469 15.9999 10.1194 15.4298 10.1194 14.8045C10.1194 13.6091 9.09875 12.8459 7.61838 12.8459C6.34944 12.8459 5.43913 13.3793 4.95181 14.1884L6.3035 14.9424C6.56094 14.5287 6.98394 14.3172 7.45288 14.3172C8.00456 14.3172 8.28044 14.5654 8.28044 14.9793C8.28044 15.2459 8.20688 15.5402 7.69194 16.0183L5.28281 18.2711V19.4113H10.2941V17.9677L7.81144 17.9676Z" fill="#2B98FF"/>
<path d="M16.0782 18.1793H17.0345V16.7357H16.0782V15.6415H14.3587V16.7357H13.0531L15.6736 12.9749H13.7886L10.9014 16.9931V18.1793H14.3036V19.4114H16.0782V18.1793Z" fill="#2B98FF"/>
<path d="M18.6899 20.3309L21.7242 11.6692H20.1703L17.1359 20.3309H18.6899Z" fill="#2B98FF"/>
<path d="M23.2691 15.4115V14.4185H24.9609L22.7909 19.4114H24.7771L27.0482 14.115V12.9749H21.7151V15.4115H23.2691Z" fill="#2B98FF"/>
</g>
<defs>
<clipPath id="clip0_21_104">
<rect width="32" height="32" fill="white"/>
</clipPath>
</defs>
</svg>
