<svg width="16" height="16" viewBox="0 0 16 16" fill="none" xmlns="http://www.w3.org/2000/svg">
<path d="M0.933568 3.86246C1.23711 3.14251 1.69037 2.49538 2.26325 1.96407C2.83612 1.43276 3.51549 1.02943 4.25622 0.780876C4.99696 0.532317 5.78211 0.444219 6.55951 0.522435C7.33691 0.60065 8.08877 0.843388 8.76515 1.23452C9.44153 1.62566 10.0269 2.15624 10.4825 2.79102C10.938 3.4258 11.2533 4.15025 11.4073 4.91624C11.5614 5.68223 11.5507 6.47223 11.3759 7.23377C11.2012 7.9953 10.8664 8.71093 10.3938 9.33313L15.2805 14.2198C15.3505 14.2894 15.4061 14.3721 15.4441 14.4631C15.4822 14.5542 15.5018 14.6519 15.502 14.7506C15.5022 14.8493 15.4829 14.947 15.4452 15.0382C15.4075 15.1295 15.3522 15.2123 15.2825 15.2821C15.2127 15.3519 15.1298 15.4073 15.0386 15.445C14.9474 15.4827 14.8497 15.502 14.751 15.5019C14.6523 15.5017 14.5546 15.4821 14.4635 15.4441C14.3724 15.4061 14.2897 15.3505 14.2202 15.2805L9.33345 10.3938C8.36682 11.1256 7.18572 11.5181 5.97333 11.5103C4.76093 11.5025 3.58498 11.0949 2.62785 10.3506C1.67072 9.60641 0.985882 8.56718 0.67955 7.3941C0.373218 6.22101 0.462506 4.97963 0.933568 3.86246ZM6.00591 10.012C6.79858 10.012 7.57345 9.77694 8.23253 9.33655C8.89161 8.89617 9.40531 8.27024 9.70865 7.5379C10.012 6.80557 10.0914 5.99973 9.93672 5.22229C9.78207 4.44485 9.40037 3.73073 8.83986 3.17023C8.27936 2.60973 7.56524 2.22802 6.7878 2.07338C6.01036 1.91873 5.20452 1.9981 4.47219 2.30144C3.73986 2.60479 3.11392 3.11848 2.67354 3.77756C2.23315 4.43664 1.9981 5.21151 1.9981 6.00418C1.99875 7.06692 2.42121 8.08594 3.17268 8.83741C3.92415 9.58888 4.94317 10.0113 6.00591 10.012Z" fill="#2B98FF"/>
</svg>
