<svg width="16" height="18" viewBox="0 0 16 18" fill="none" xmlns="http://www.w3.org/2000/svg">
<g clip-path="url(#clip0_40_1342)">
<path d="M0.450012 3.91553L2.68983 7.81135V10.1885L0.450012 14.0777V3.91553Z" fill="#5A579C"/>
<path d="M9.05634 6.39863L11.1536 5.14404H15.45L9.05634 8.95402V6.39863Z" fill="#C62C53"/>
<path d="M9.04278 3.89582V9.05282L6.79617 7.73221V0L9.0292 3.89582H9.04278Z" fill="#EFB945"/>
<path d="M15.45 5.1438H11.1536L9.04279 3.89582L6.80975 0L15.45 5.1438Z" fill="#DC763B"/>
<path d="M9.05636 14.1039V11.6014L6.80975 10.2808V17.9998L9.05636 14.1039Z" fill="#76AF45"/>
<path d="M11.1468 12.8627L2.68983 7.81135L0.450012 3.91553L15.4432 12.8561L11.1468 12.8627Z" fill="#3E84C3"/>
<path d="M6.80975 18L9.05636 14.1042L11.1469 12.8628H15.4432L6.80975 18Z" fill="#377D3F"/>
<path d="M0.450012 14.0778L6.82332 10.281L4.68531 9L2.68983 10.1886L0.450012 14.0778Z" fill="#8D4D90"/>
</g>
<defs>
<clipPath id="clip0_40_1342">
<rect width="15" height="18" fill="white" transform="translate(0.450012)"/>
</clipPath>
</defs>
</svg>
