<svg width="13" height="13" viewBox="0 0 13 13" fill="none" xmlns="http://www.w3.org/2000/svg">
<path d="M12.9815 5.00879C12.9367 4.87089 12.8175 4.77039 12.6741 4.74957L8.64399 4.16394L6.84165 0.512095C6.77751 0.382095 6.6451 0.299805 6.50014 0.299805C6.35517 0.299805 6.22278 0.382095 6.15862 0.512095L4.35619 4.16394L0.326209 4.74957C0.182778 4.77039 0.0635697 4.87089 0.0187808 5.00876C-0.0260335 5.14666 0.0113413 5.29801 0.115163 5.39919L3.03121 8.24176L2.34293 12.2556C2.3184 12.3985 2.37715 12.5428 2.49443 12.6281C2.56078 12.6763 2.63936 12.7008 2.71833 12.7008C2.77896 12.7008 2.8398 12.6864 2.8955 12.6571L6.50012 10.762L10.1046 12.657C10.2329 12.7245 10.3884 12.7133 10.5057 12.6281C10.623 12.5428 10.6817 12.3984 10.6572 12.2555L9.96872 8.24176L12.8851 5.39917C12.9889 5.29801 13.0263 5.14666 12.9815 5.00879Z" fill="#FF9900"/>
</svg>
