<svg width="25" height="25" viewBox="0 0 25 25" fill="none" xmlns="http://www.w3.org/2000/svg">
<g clip-path="url(#clip0_1_23)">
<path d="M12.5 0.78125C10.1823 0.78125 7.91656 1.46854 5.98942 2.75622C4.06228 4.04389 2.56026 5.87411 1.67329 8.01543C0.786328 10.1567 0.554257 12.513 1.00643 14.7862C1.4586 17.0594 2.5747 19.1475 4.2136 20.7864C5.85249 22.4253 7.94058 23.5414 10.2138 23.9936C12.487 24.4457 14.8433 24.2137 16.9846 23.3267C19.1259 22.4397 20.9561 20.9377 22.2438 19.0106C23.5315 17.0835 24.2188 14.8177 24.2188 12.5C24.2152 9.39307 22.9795 6.41441 20.7825 4.21747C18.5856 2.02054 15.6069 0.784765 12.5 0.78125ZM12.5 2.34375C14.3586 2.34097 16.1823 2.84901 17.7717 3.81238C19.3612 4.77575 20.6553 6.15739 21.5128 7.80639C22.3703 9.45539 22.7581 11.3083 22.6339 13.1628C22.5097 15.0173 21.8783 16.8019 20.8086 18.3219C18.6005 16.1205 15.6178 14.8719 12.5 14.8438C9.38218 14.8719 6.39948 16.1205 4.19141 18.3219C3.12171 16.8019 2.49028 15.0173 2.36608 13.1628C2.24189 11.3083 2.62971 9.45539 3.48719 7.80639C4.34467 6.15739 5.63882 4.77575 7.22828 3.81238C8.81775 2.84901 10.6414 2.34097 12.5 2.34375ZM12.5 22.6562C11.1357 22.6425 9.78765 22.3594 8.53314 21.8231C7.27864 21.2868 6.14245 20.5079 5.18985 19.5312C6.14222 18.5542 7.27836 17.7752 8.53291 17.2389C9.78747 16.7026 11.1357 16.4196 12.5 16.4062C13.8643 16.4197 15.2125 16.7027 16.467 17.239C17.7216 17.7753 18.8577 18.5543 19.8102 19.5312C18.8574 20.5078 17.7212 21.2865 16.4667 21.8228C15.2123 22.3591 13.8642 22.6423 12.5 22.6562Z" fill="#3B3B3B"/>
<path d="M12.5 13.2813C13.2726 13.2813 14.0278 13.0522 14.6702 12.6229C15.3126 12.1937 15.8132 11.5836 16.1089 10.8699C16.4046 10.1561 16.4819 9.37067 16.3312 8.61293C16.1805 7.85519 15.8084 7.15916 15.2621 6.61287C14.7158 6.06657 14.0198 5.69453 13.2621 5.54381C12.5043 5.39309 11.7189 5.47044 11.0051 5.7661C10.2914 6.06175 9.6813 6.56243 9.25207 7.20481C8.82285 7.84718 8.59375 8.60242 8.59375 9.375C8.59499 10.4106 9.00694 11.4035 9.73923 12.1358C10.4715 12.8681 11.4644 13.28 12.5 13.2813ZM12.5 7.03125C12.9635 7.03125 13.4167 7.16871 13.8021 7.42624C14.1875 7.68378 14.4879 8.04982 14.6653 8.47809C14.8427 8.90635 14.8891 9.3776 14.7987 9.83224C14.7083 10.2869 14.4851 10.7045 14.1573 11.0323C13.8295 11.3601 13.4119 11.5833 12.9572 11.6737C12.5026 11.7642 12.0313 11.7177 11.6031 11.5403C11.1748 11.363 10.8088 11.0625 10.5512 10.6771C10.2937 10.2917 10.1562 9.83855 10.1562 9.375C10.1562 8.7534 10.4032 8.15726 10.8427 7.71772C11.2823 7.27818 11.8784 7.03125 12.5 7.03125Z" fill="#3B3B3B"/>
</g>
<defs>
<clipPath id="clip0_1_23">
<rect width="25" height="25" fill="white"/>
</clipPath>
</defs>
</svg>
