<svg width="42" height="14" viewBox="0 0 42 14" fill="none" xmlns="http://www.w3.org/2000/svg">
<g clip-path="url(#clip0_40_1310)">
<path d="M18.13 13.3402H14.74L16.86 0.240234H20.24L18.13 13.3402Z" fill="#00339F"/>
<path d="M30.41 0.560007C29.4535 0.188622 28.4361 -0.00128555 27.41 6.54923e-06C24 6.54923e-06 21.67 1.78001 21.65 4.33001C21.65 6.22001 23.34 7.26001 24.65 7.89001C25.96 8.52001 26.38 9.00001 26.38 9.52001C26.38 10.4 25.32 10.8 24.38 10.8C23.2801 10.8276 22.1896 10.591 21.2 10.11L20.76 9.90001L20.28 12.84C21.4863 13.3038 22.7677 13.5411 24.06 13.54C27.62 13.54 29.93 11.78 29.96 9.06001C29.96 7.57001 29.07 6.43001 27.12 5.49001C25.93 4.89001 25.21 4.49001 25.21 3.88001C25.21 3.27001 25.82 2.75001 27.16 2.75001C28.0273 2.72059 28.8897 2.89169 29.68 3.25001L29.99 3.39001L30.41 0.560007Z" fill="#00339F"/>
<path d="M34.91 8.69993C35.19 7.99993 36.26 4.99993 36.26 4.99993C36.26 4.99993 36.54 4.23993 36.71 3.74993L37 4.90993C37 4.90993 37.64 8.03993 37.78 8.69993H34.91ZM39.09 0.239934H36.47C36.0964 0.194169 35.7184 0.275932 35.3971 0.471964C35.0758 0.667996 34.8302 0.966803 34.7 1.31993L29.7 13.3199H33.25L33.96 11.3199H38.32L38.72 13.3199H41.86L39.09 0.239934Z" fill="#00339F"/>
<path d="M11.91 0.240234L8.58998 9.17023L8.22998 7.36023C7.40071 5.01243 5.72942 3.05606 3.53998 1.87023L6.53998 13.3302H10.13L15.49 0.240234H11.91Z" fill="#00339F"/>
<path d="M5.51 0.239761H0.06L0 0.499761C4.25 1.58976 7.07 4.20976 8.23 7.35976L7 1.33976C6.93226 1.00429 6.74227 0.705957 6.46693 0.502686C6.1916 0.299415 5.85055 0.205709 5.51 0.239761Z" fill="#D1801A"/>
</g>
<defs>
<clipPath id="clip0_40_1310">
<rect width="41.83" height="13.54" fill="white"/>
</clipPath>
</defs>
</svg>
